<?xml version="1.0" standalone="no"?>
<!DOCTYPE svg PUBLIC "-//W3C//DTD SVG 1.1//EN" "http://www.w3.org/Graphics/SVG/1.1/DTD/svg11.dtd" >
<svg xmlns="http://www.w3.org/2000/svg" xmlns:xlink="http://www.w3.org/1999/xlink" version="1.1">
<metadata>
Created by FontForge 20150913 at Tue Apr  5 14:20:10 2016
 By Jimmy Wärting
</metadata>
<defs>
<font id="KozGoPro-Light-AlphaNum" horiz-adv-x="1000" vert-adv-y="1000" >
  <font-face 
    font-family="KozGoPro-Light-AlphaNum"
    font-weight="200"
    font-stretch="normal"
    units-per-em="1000"
    panose-1="2 0 3 3 0 0 0 0 0 0"
    ascent="800"
    descent="-200"
    bbox="16 -83 971 843"
    underline-thickness="50"
    underline-position="-150"
  />
<missing-glyph horiz-adv-x="364" 
d="M33 0v666h265v-666h-265zM66 33h199v600h-199v-600z" />
    <glyph glyph-name=".notdef" horiz-adv-x="364" 
d="M33 0v666h265v-666h-265zM66 33h199v600h-199v-600z" />
    <glyph glyph-name=".null" horiz-adv-x="0" vert-adv-y="0" 
 />
    <glyph glyph-name="nonmarkingreturn" horiz-adv-x="333" 
 />
    <glyph glyph-name="Japan1.7555" 
d="M962 380q0 -192 -136 -327t-326 -135q-191 0 -326.5 135.5t-135.5 326.5t135.5 326.5t326.5 135.5t326.5 -135.5t135.5 -326.5zM500 814q-181 0 -307.5 -127.5t-126.5 -306.5q0 -180 127 -307t307 -127t307 127t127 307t-127 307t-307 127zM486 123v469h-2l-82 -46
l-10 39l94 52h48v-514h-48z" />
    <glyph glyph-name="Japan1.7556" 
d="M962 380q0 -192 -136 -327t-326 -135q-191 0 -326.5 135.5t-135.5 326.5t135.5 326.5t326.5 135.5t326.5 -135.5t135.5 -326.5zM500 814q-181 0 -307.5 -127.5t-126.5 -306.5q0 -180 127 -307t307 -127t307 127t127 307t-127 307t-307 127zM672 130h-344v31l52 45
q142 126 185 176.5t43 100.5q0 46 -28.5 79.5t-94.5 33.5q-69 0 -124 -49l-17 33q66 58 151 58q45 0 78.5 -15t50.5 -38t25 -46t8 -44q0 -69 -46 -125t-179 -172l-33 -25v-2h273v-41z" />
    <glyph glyph-name="Japan1.7557" 
d="M962 380q0 -192 -136 -327t-326 -135q-191 0 -326.5 135.5t-135.5 326.5t135.5 326.5t326.5 135.5t326.5 -135.5t135.5 -326.5zM500 814q-181 0 -307.5 -127.5t-126.5 -306.5q0 -180 127 -307t307 -127t307 127t127 307t-127 307t-307 127zM333 160l16 39q54 -37 127 -37
q43 0 73.5 13t43.5 33t18 35t5 28q-1 40 -27.5 66t-61 35t-76.5 9h-41v39h44q56 0 97.5 23.5t41.5 69.5q0 33 -25.5 58.5t-82.5 25.5q-64 0 -115 -38l-15 36q22 18 60 30.5t77 12.5q78 0 114 -36t36 -83q0 -39 -26 -69.5t-74 -46.5v-2q55 -10 89.5 -46.5t34.5 -83.5
q0 -59 -49 -104t-145 -45q-84 0 -139 38z" />
    <glyph glyph-name="Japan1.7558" 
d="M962 380q0 -192 -136 -327t-326 -135q-191 0 -326.5 135.5t-135.5 326.5t135.5 326.5t326.5 135.5t326.5 -135.5t135.5 -326.5zM500 814q-181 0 -307.5 -127.5t-126.5 -306.5q0 -180 127 -307t307 -127t307 127t127 307t-127 307t-307 127zM598 123h-48v141h-277v32
l284 341h41v-334h82v-39h-82v-141zM322 303h228v225l1 50l-2 1q-13 -21 -31 -46l-196 -228v-2z" />
    <glyph glyph-name="Japan1.7559" 
d="M962 380q0 -192 -136 -327t-326 -135q-191 0 -326.5 135.5t-135.5 326.5t135.5 326.5t326.5 135.5t326.5 -135.5t135.5 -326.5zM500 814q-181 0 -307.5 -127.5t-126.5 -306.5q0 -180 127 -307t307 -127t307 127t127 307t-127 307t-307 127zM655 630v-41h-213l-22 -148
q32 6 57 6q85 0 136.5 -43t51.5 -114q0 -73 -54 -120.5t-134 -47.5q-79 0 -137 36l17 38q51 -33 122 -33q57 0 96.5 35t39.5 82q0 58 -37.5 92.5t-118.5 34.5q-29 0 -85 -8l30 231h251z" />
    <glyph glyph-name="Japan1.7560" 
d="M962 380q0 -192 -136 -327t-326 -135q-191 0 -326.5 135.5t-135.5 326.5t135.5 326.5t326.5 135.5t326.5 -135.5t135.5 -326.5zM500 814q-181 0 -307.5 -127.5t-126.5 -306.5q0 -180 127 -307t307 -127t307 127t127 307t-127 307t-307 127zM628 639v-45q-6 1 -20 1
q-204 0 -240 -205l3 2q53 66 146 66q77 0 120 -47t43 -108q0 -72 -52 -126.5t-136 -54.5q-75 0 -124.5 53t-49.5 161q0 157 104 244q73 59 206 59zM502 160q59 0 94.5 44t35.5 98q0 48 -35 83t-89 35q-56 0 -99 -30.5t-43 -63.5q0 -25 6 -51t19.5 -53.5t42 -44.5t68.5 -17z
" />
    <glyph glyph-name="Japan1.7561" 
d="M962 380q0 -192 -136 -327t-326 -135q-191 0 -326.5 135.5t-135.5 326.5t135.5 326.5t326.5 135.5t326.5 -135.5t135.5 -326.5zM500 814q-181 0 -307.5 -127.5t-126.5 -306.5q0 -180 127 -307t307 -127t307 127t127 307t-127 307t-307 127zM334 630h334v-38l-257 -469
h-49l257 464v2h-285v41z" />
    <glyph glyph-name="Japan1.7562" 
d="M429 393v2q-91 34 -91 111q0 57 47.5 94.5t120.5 37.5q70 0 113.5 -33.5t43.5 -88.5q0 -81 -97 -118v-3q117 -33 117 -126q0 -69 -54.5 -108t-128.5 -39q-76 0 -129.5 36.5t-53.5 102.5q0 91 112 132zM504 601q-56 0 -87.5 -27t-31.5 -66q0 -78 128 -99q103 24 103 103
q0 33 -27 61t-85 28zM365 268v-6q0 -41 36.5 -72t97.5 -31q65 0 100.5 31t35.5 71q0 52 -37 78.5t-114 39.5q-57 -12 -88 -40.5t-31 -70.5zM962 380q0 -192 -136 -327t-326 -135q-191 0 -326.5 135.5t-135.5 326.5t135.5 326.5t326.5 135.5t326.5 -135.5t135.5 -326.5z
M500 814q-181 0 -307.5 -127.5t-126.5 -306.5q0 -180 127 -307t307 -127t307 127t127 307t-127 307t-307 127z" />
    <glyph glyph-name="Japan1.7563" 
d="M962 380q0 -192 -136 -327t-326 -135q-191 0 -326.5 135.5t-135.5 326.5t135.5 326.5t326.5 135.5t326.5 -135.5t135.5 -326.5zM500 814q-181 0 -307.5 -127.5t-126.5 -306.5q0 -180 127 -307t307 -127t307 127t127 307t-127 307t-307 127zM372 121v45q6 -1 19 -1
q106 0 165 54.5t74 150.5l-3 -2q-51 -66 -145 -66q-77 0 -120.5 47t-43.5 108q0 71 52.5 126t136.5 55q75 0 124 -53t49 -161q0 -121 -62.5 -202t-163.5 -94q-60 -7 -82 -7zM496 600q-60 0 -94.5 -43.5t-34.5 -98.5q0 -48 34.5 -83t88.5 -35q50 0 96 27.5t46 66.5
q0 68 -33 117t-103 49z" />
    <glyph glyph-name="Japan1.7564" 
d="M962 379q0 -192 -136 -327t-326 -135q-191 0 -326.5 135.5t-135.5 326.5t135.5 326.5t326.5 135.5t326.5 -135.5t135.5 -326.5zM500 813q-181 0 -307.5 -127.5t-126.5 -306.5q0 -180 127 -307t307 -127t307 127t127 307t-127 307t-307 127zM616 138q-61 0 -100.5 62
t-40.5 177q0 117 43 180t108 63q66 0 103.5 -61.5t37.5 -173.5q0 -123 -41 -185t-110 -62zM619 175q102 0 102 207q0 201 -100 201q-39 0 -70 -47.5t-31 -162.5q0 -92 27 -145t72 -53zM308 139v437h-1l-77 -44l-9 35l90 52h41v-480h-44z" />
    <glyph glyph-name="Japan1.7565" 
d="M962 380q0 -192 -136 -327t-326 -135q-191 0 -326.5 135.5t-135.5 326.5t135.5 326.5t326.5 135.5t326.5 -135.5t135.5 -326.5zM500 814q-181 0 -307.5 -127.5t-126.5 -306.5q0 -180 127 -307t307 -127t307 127t127 307t-127 307t-307 127zM317 140v437h-2l-75 -44
l-10 35l90 52h42v-480h-45zM661 140v437h-2l-76 -44l-9 35l90 52h42v-480h-45z" />
    <glyph glyph-name="Japan1.7566" 
d="M962 380q0 -192 -136 -327t-326 -135q-191 0 -326.5 135.5t-135.5 326.5t135.5 326.5t326.5 135.5t326.5 -135.5t135.5 -326.5zM500 814q-181 0 -307.5 -127.5t-126.5 -306.5q0 -180 127 -307t307 -127t307 127t127 307t-127 307t-307 127zM308 140v437h-1l-76 -44
l-10 35l91 52h40v-480h-44zM753 146h-274v28l44 47q102 109 137.5 159.5t35.5 103.5q0 42 -22.5 70t-71.5 28q-50 0 -94 -37l-14 32q49 44 117 44q67 0 98.5 -39.5t31.5 -89.5q0 -63 -39 -120.5t-133 -153.5l-32 -32v-2h216v-38z" />
    <glyph glyph-name="Japan1.7567" 
d="M962 380q0 -192 -136 -327t-326 -135q-191 0 -326.5 135.5t-135.5 326.5t135.5 326.5t326.5 135.5t326.5 -135.5t135.5 -326.5zM500 814q-181 0 -307.5 -127.5t-126.5 -306.5q0 -180 127 -307t307 -127t307 127t127 307t-127 307t-307 127zM308 140v437h-1l-76 -44
l-10 35l91 52h40v-480h-44zM478 169l13 36q41 -27 100 -27q62 0 89 31t27 68q-1 51 -39.5 76.5t-96.5 25.5h-28v37h28q45 0 81.5 23.5t36.5 65.5q0 34 -22 55.5t-67 21.5q-48 0 -89 -29l-14 34q46 34 110 34q63 0 95 -32t32 -77q0 -37 -23 -67t-64 -43v-1q46 -10 75.5 -42.5
t29.5 -80.5q0 -57 -42.5 -98t-121.5 -41q-70 0 -110 30z" />
    <glyph glyph-name="Japan1.7568" 
d="M962 380q0 -192 -136 -327t-326 -135q-191 0 -326.5 135.5t-135.5 326.5t135.5 326.5t326.5 135.5t326.5 -135.5t135.5 -326.5zM500 814q-181 0 -307.5 -127.5t-126.5 -306.5q0 -180 127 -307t307 -127t307 127t127 307t-127 307t-307 127zM704 140h-41v132h-214v30
l218 317h37v-311h67v-36h-67v-132zM490 308h173v192q0 22 2 64l-2 1q-18 -34 -35 -59l-138 -196v-2zM308 140v437h-1l-76 -44l-10 35l91 52h40v-480h-44z" />
    <glyph glyph-name="Japan1.7569" 
d="M962 380q0 -192 -136 -327t-326 -135q-191 0 -326.5 135.5t-135.5 326.5t135.5 326.5t326.5 135.5t326.5 -135.5t135.5 -326.5zM500 814q-181 0 -307.5 -127.5t-126.5 -306.5q0 -180 127 -307t307 -127t307 127t127 307t-127 307t-307 127zM308 140v437h-1l-77 -44l-9 35
l90 52h41v-480h-44zM735 614v-38h-165l-20 -138q30 3 36 3q62 0 108 -38t46 -106q0 -69 -45.5 -113.5t-112.5 -44.5q-66 0 -104 28l13 36q38 -25 91 -25q49 0 81 31.5t32 80.5q-1 53 -33.5 83.5t-94.5 30.5q-31 0 -61 -4l30 214h199z" />
    <glyph glyph-name="Japan1.7570" 
d="M962 380q0 -192 -136 -327t-326 -135q-191 0 -326.5 135.5t-135.5 326.5t135.5 326.5t326.5 135.5t326.5 -135.5t135.5 -326.5zM500 814q-181 0 -307.5 -127.5t-126.5 -306.5q0 -180 127 -307t307 -127t307 127t127 307t-127 307t-307 127zM729 622v-42q-26 2 -52.5 -4
t-59 -23.5t-57.5 -59.5t-34 -103l3 1q40 54 110 54q60 0 94 -41t34 -101q0 -66 -40.5 -115t-105.5 -49q-62 0 -101.5 51t-39.5 143q0 141 80 223q25 27 60 42t56 18.5t53 5.5zM626 175q44 0 70.5 35.5t26.5 94.5q0 47 -26 76t-68 29t-73 -25t-31 -55q0 -71 25.5 -113
t75.5 -42zM308 140v437h-1l-77 -44l-9 35l90 52h41v-480h-44z" />
    <glyph glyph-name="Japan1.7571" 
d="M962 380q0 -192 -136 -327t-326 -135q-191 0 -326.5 135.5t-135.5 326.5t135.5 326.5t326.5 135.5t326.5 -135.5t135.5 -326.5zM500 814q-181 0 -307.5 -127.5t-126.5 -306.5q0 -180 127 -307t307 -127t307 127t127 307t-127 307t-307 127zM308 140v437h-1l-77 -44l-9 35
l90 52h41v-480h-44zM491 614h270v-32l-203 -442h-43l200 434v2h-224v38z" />
    <glyph glyph-name="Japan1.7572" 
d="M570 394l-1 2q-76 34 -76 104q0 53 38 87t95 34t90.5 -32.5t33.5 -79.5q0 -74 -80 -111v-3q95 -37 95 -123q0 -59 -43 -96t-102 -37q-62 0 -103 34.5t-41 90.5q0 86 94 130zM625 587q-43 0 -65.5 -24.5t-22.5 -58.5q0 -70 94 -96q77 27 77 97q0 33 -21 57.5t-62 24.5z
M520 272v-6q0 -39 27 -66t73 -27t74 27t28 68q0 45 -28 71t-83 42q-44 -13 -67.5 -42t-23.5 -67zM962 380q0 -192 -136 -327t-326 -135q-191 0 -326.5 135.5t-135.5 326.5t135.5 326.5t326.5 135.5t326.5 -135.5t135.5 -326.5zM500 814q-181 0 -307.5 -127.5t-126.5 -306.5
q0 -180 127 -307t307 -127t307 127t127 307t-127 307t-307 127zM308 140v437h-1l-77 -44l-9 35l90 52h41v-480h-44z" />
    <glyph glyph-name="Japan1.7573" 
d="M962 380q0 -192 -136 -327t-326 -135q-191 0 -326.5 135.5t-135.5 326.5t135.5 326.5t326.5 135.5t326.5 -135.5t135.5 -326.5zM500 814q-181 0 -307.5 -127.5t-126.5 -306.5q0 -180 127 -307t307 -127t307 127t127 307t-127 307t-307 127zM519 138v42q73 -6 131.5 41.5
t71.5 148.5l-2 -1q-42 -54 -111 -54q-60 0 -94 41t-34 101q0 66 40.5 115t105.5 49q63 0 102 -51t39 -143q0 -141 -80 -223q-25 -27 -60 -42t-56 -18.5t-53 -5.5zM623 585q-46 0 -72 -37t-26 -91q0 -48 26 -77.5t68 -29.5q43 0 73.5 25.5t30.5 54.5q0 71 -25.5 113t-74.5 42
zM308 140v437h-1l-77 -44l-9 35l90 52h41v-480h-44z" />
    <glyph glyph-name="Japan1.7574" 
d="M962 380q0 -192 -136 -327t-326 -135q-191 0 -326.5 135.5t-135.5 326.5t135.5 326.5t326.5 135.5t326.5 -135.5t135.5 -326.5zM500 814q-181 0 -307.5 -127.5t-126.5 -306.5q0 -180 127 -307t307 -127t307 127t127 307t-127 307t-307 127zM671 139q-61 0 -94.5 67
t-33.5 173q0 117 38 179.5t98 62.5q59 0 92.5 -61.5t33.5 -176.5q0 -122 -36.5 -183t-97.5 -61zM674 177q33 0 53 33.5t26.5 76t6.5 94.5q0 92 -21 147t-64 55q-37 0 -61.5 -51t-24.5 -157q0 -90 22.5 -144t62.5 -54zM467 146h-244v29l42 50q43 53 59.5 75t42.5 61
t35.5 68.5t9.5 59.5q0 93 -81 93q-41 0 -80 -31l-12 33q43 37 100 37q60 0 89 -37.5t29 -89.5q0 -45 -22.5 -94t-47.5 -82t-75 -93l-33 -39v-2h188v-38z" />
    <glyph glyph-name="Japan1.7575" 
d="M470 769h59v-779h-59v779z" />
    <glyph glyph-name="Japan1.7576" 
d="M325 769h57v-779h-57v779zM618 769h57v-779h-57v779z" />
    <glyph glyph-name="Japan1.7577" 
d="M229 769h57v-779h-57v779zM471 769h57v-779h-57v779zM713 769h57v-779h-57v779z" />
    <glyph glyph-name="Japan1.7578" 
d="M156 769h56v-779h-56v779zM625 -10h-60l-253 779h62l135 -430q49 -154 87 -287h3q31 99 97 286l153 431h61z" />
    <glyph glyph-name="Japan1.7579" 
d="M514 -10h-64l-275 779h63l149 -432l96 -290h3q34 103 108 289l168 433h63z" />
    <glyph glyph-name="Japan1.7580" 
d="M402 -10h-60l-252 779h61l136 -430l87 -287h1q36 114 98 286l153 431h62zM788 769h57v-779h-57v779z" />
    <glyph glyph-name="Japan1.7581" 
d="M369 -10h-58l-257 779h59l139 -429q51 -159 88 -282h2l77 282l121 429h58zM660 769h55v-779h-55v779zM853 769h55v-779h-55v779z" />
    <glyph glyph-name="Japan1.7582" 
d="M315 -10h-54l-224 779h56l120 -429l75 -278h2q27 128 65 278l104 429h55zM557 769h51v-779h-51v779zM713 769h50v-779h-50v779zM870 769h50v-779h-50v779z" />
    <glyph glyph-name="Japan1.7583" 
d="M147 769h57v-779h-57v779zM888 -10h-66l-115 184q-20 32 -45.5 73.5t-40.5 66t-25 42.5h-2q-12 -24 -103 -181l-107 -185h-65l246 401l-225 378h65l122 -209l76 -133h1q40 74 75 132l122 210h66l-235 -378z" />
    <glyph glyph-name="Japan1.7584" 
d="M821 -10h-70l-136 185l-126 182h-2q-35 -57 -118 -181l-126 -186h-68l280 401l-256 378h69l139 -210l89 -134h2q24 39 88 133l140 211h70l-267 -378z" />
    <glyph glyph-name="Japan1.8061" 
d="M488 -13q-125 0 -192.5 104.5t-67.5 287.5q0 184 76 282.5t183 98.5q119 0 189 -94.5t70 -285.5q0 -193 -70 -293t-188 -100zM485 35q54 0 93.5 28.5t61.5 78t32.5 108t10.5 126.5q0 153 -49 244.5t-147 91.5q-83 0 -139.5 -87.5t-56.5 -260.5q0 -146 52.5 -237.5
t141.5 -91.5zM922 -8q-40 0 -40 46q0 21 11 33.5t29 12.5q40 0 40 -46t-40 -46z" />
    <glyph glyph-name="Japan1.8062" 
d="M488 -11v705h-2l-147 -85l-20 45l177 104h52v-769h-60zM922 -8q-40 0 -40 46q0 21 11 33.5t29 12.5q40 0 40 -46t-40 -46z" />
    <glyph glyph-name="Japan1.8063" 
d="M307 609l-35 39q48 56 103 84t133 28q97 0 154 -58.5t57 -140.5q0 -45 -14 -88t-34 -77t-61.5 -79.5t-75.5 -78.5t-98 -91l-36 -33l-70 -61v-2h411v-51h-502v39l80 72q176 160 226 214q99 108 109 200q2 14 2 28q0 67 -43 111t-114 44q-105 0 -192 -99zM922 -8
q-40 0 -40 46q0 21 11 33.5t29 12.5q40 0 40 -46t-40 -46z" />
    <glyph glyph-name="Japan1.8064" 
d="M299 639l-25 43q33 33 91.5 55.5t121.5 22.5q102 0 155.5 -51.5t53.5 -123.5q0 -69 -40 -118t-121 -68v-2q85 -11 138.5 -60t53.5 -137q0 -36 -14.5 -71.5t-43.5 -68t-83 -53t-124 -20.5q-134 0 -217 71l28 45q75 -66 192 -66q99 0 148.5 52t49.5 114q0 47 -20.5 81
t-56.5 51t-75.5 24.5t-86.5 7.5h-60v48h61q84 0 146.5 43.5t62.5 116.5q0 58 -39.5 96.5t-113.5 38.5q-52 0 -102 -21t-80 -50zM922 -8q-40 0 -40 46q0 21 11 33.5t29 12.5q40 0 40 -46t-40 -46z" />
    <glyph glyph-name="Japan1.8065" 
d="M644 -11h-60v188h-383v40l380 541h63v-532h130v-49h-130v-188zM275 226h309v332q0 40 4 126h-5q-31 -56 -74 -119l-233 -336zM922 -8q-40 0 -40 46q0 21 11 33.5t29 12.5q40 0 40 -46t-40 -46z" />
    <glyph glyph-name="Japan1.8066" 
d="M303 409l47 338h356v-51h-311l-33 -232q63 7 84 7q79 0 135.5 -22.5t85 -59.5t40.5 -74.5t12 -77.5q0 -110 -75.5 -180t-203.5 -70q-55 0 -106.5 16.5t-78.5 37.5l23 49q77 -54 167 -54t150 52t60 143q0 89 -57.5 140.5t-171.5 51.5q-58 0 -123 -14zM922 -8q-40 0 -40 46
q0 21 11 33.5t29 12.5q40 0 40 -46t-40 -46z" />
    <glyph glyph-name="Japan1.8067" 
d="M300 382h2q31 46 84 75t120 29q101 0 166.5 -66.5t65.5 -175.5q0 -108 -66 -182.5t-177 -74.5q-116 0 -187 85.5t-71 226.5q0 56 10.5 112t40 118t74.5 110t122 82t175 39l5 -54q-132 6 -238 -84.5t-126 -239.5zM489 439q-81 0 -135.5 -53t-54.5 -94q1 -121 53.5 -189
t144.5 -68q79 0 128 54.5t49 148.5q0 97 -50.5 149t-134.5 52zM922 -8q-40 0 -40 46q0 21 11 33.5t29 12.5q40 0 40 -46t-40 -46z" />
    <glyph glyph-name="Japan1.8068" 
d="M249 747h481v-45l-340 -702h-69l341 693v3h-413v51zM922 -8q-40 0 -40 46q0 21 11 33.5t29 12.5q40 0 40 -46t-40 -46z" />
    <glyph glyph-name="Japan1.8069" 
d="M391 393v3q-136 51 -136 166q0 86 68 142t172 56q101 0 162 -52t61 -131q0 -124 -140 -179v-3q86 -26 128.5 -76t42.5 -115q0 -98 -78 -157.5t-184 -59.5q-110 0 -186 55t-76 149q0 68 42 120t124 82zM492 713q-85 0 -131 -42t-46 -98q0 -63 44.5 -100.5t139.5 -55.5
q71 17 115.5 57.5t44.5 100.5q0 53 -41 95.5t-126 42.5zM484 34q95 0 148 47.5t53 109.5q0 77 -51.5 118t-158.5 62q-89 -17 -138 -63t-49 -108q0 -67 52.5 -116.5t143.5 -49.5zM922 -8q-40 0 -40 46q0 21 11 33.5t29 12.5q40 0 40 -46t-40 -46z" />
    <glyph glyph-name="Japan1.8070" 
d="M675 365h-2q-31 -46 -84.5 -75.5t-119.5 -29.5q-101 0 -166.5 67t-65.5 176q0 108 66 182.5t177 74.5q117 0 187.5 -86.5t70.5 -225.5q0 -55 -10 -109.5t-39 -117.5t-74 -111t-122 -83t-177 -40l-5 54q130 -6 237 84t127 240zM478 712q-80 0 -129 -54.5t-49 -148.5
q0 -97 51 -149t135 -52q79 0 134.5 52t55.5 95q-1 121 -53.5 189t-144.5 68zM922 -8q-40 0 -40 46q0 21 11 33.5t29 12.5q40 0 40 -46t-40 -46z" />
    <glyph glyph-name="Japan1.8071" 
d="M179 842v-5q-103 -135 -103 -457t103 -457v-5h-38q-103 139 -103 462t103 462h38zM821 -82v5q103 135 103 457t-103 457v5h38q103 -139 103 -462t-103 -462h-38zM495 29v637h-3l-112 -66l-12 42l132 79h46v-692h-51z" />
    <glyph glyph-name="Japan1.8072" 
d="M179 842v-5q-103 -135 -103 -457t103 -457v-5h-38q-103 139 -103 462t103 462h38zM821 -82v5q103 135 103 457t-103 457v5h38q103 -139 103 -462t-103 -462h-38zM693 39h-389v33l65 69q139 146 196 229t57 167q0 66 -32.5 108t-106.5 42q-68 0 -134 -56l-20 38
q71 64 164 64t138 -56.5t45 -130.5q0 -94 -58 -183.5t-187 -223.5l-51 -52v-2h313v-46z" />
    <glyph glyph-name="Japan1.8073" 
d="M179 842v-5q-103 -135 -103 -457t103 -457v-5h-38q-103 139 -103 462t103 462h38zM821 -82v5q103 135 103 457t-103 457v5h38q103 -139 103 -462t-103 -462h-38zM309 71l19 43q60 -41 141 -41q47 0 81.5 15t52 39t25.5 49t8 52q0 78 -56.5 118t-137.5 39h-40v44h41
q62 0 113.5 36t51.5 101q0 53 -31 87t-96 34q-67 0 -125 -46l-20 40q64 52 153 52q88 0 131 -47t43 -112q0 -53 -32 -96t-91 -66v-3q65 -13 108 -61t43 -119q0 -83 -59 -142.5t-168 -59.5q-94 0 -155 44z" />
    <glyph glyph-name="Japan1.8074" 
d="M622 29h-51v209h-304v35l309 458h46v-449h100v-44h-100v-209zM331 282h241v268q0 52 3 101h-2q-28 -51 -54 -92l-188 -275v-2zM179 842v-5q-103 -135 -103 -457t103 -457v-5h-38q-103 139 -103 462t103 462h38zM821 -82v5q103 135 103 457t-103 457v5h38
q103 -139 103 -462t-103 -462h-38z" />
    <glyph glyph-name="Japan1.8075" 
d="M179 842v-5q-103 -135 -103 -457t103 -457v-5h-38q-103 139 -103 462t103 462h38zM821 -82v5q103 135 103 457t-103 457v5h38q103 -139 103 -462t-103 -462h-38zM680 721v-46h-240l-32 -213q28 4 54 4q90 0 156.5 -55t66.5 -155t-64.5 -164.5t-158.5 -64.5t-147 42l19 42
q59 -38 130 -38t119.5 48.5t47.5 126.5q-1 81 -48.5 127.5t-139.5 46.5q-50 0 -87 -7l43 306h281z" />
    <glyph glyph-name="Japan1.8076" 
d="M651 733v-49q-120 7 -200 -73.5t-99 -220.5l2 1q65 81 164 81q85 0 135 -60t50 -146q0 -98 -58 -168.5t-150 -70.5q-88 0 -142.5 76t-54.5 207q0 79 17.5 146.5t45 112.5t63.5 79t71.5 51.5t70.5 24.5q51 11 85 9zM503 71q65 0 105.5 54t40.5 139q-1 77 -39.5 121
t-102.5 44q-61 0 -108 -39.5t-47 -78.5q0 -112 38.5 -176t112.5 -64zM179 842v-5q-103 -135 -103 -457t103 -457v-5h-38q-103 139 -103 462t103 462h38zM821 -82v5q103 135 103 457t-103 457v5h38q103 -139 103 -462t-103 -462h-38z" />
    <glyph glyph-name="Japan1.8077" 
d="M179 842v-5q-103 -135 -103 -457t103 -457v-5h-38q-103 139 -103 462t103 462h38zM821 -82v5q103 135 103 457t-103 457v5h38q103 -139 103 -462t-103 -462h-38zM323 721h383v-37l-293 -655h-56l290 643v3h-324v46z" />
    <glyph glyph-name="Japan1.8078" 
d="M428 400v2q-58 26 -85.5 67t-27.5 88q0 77 55 126.5t137 49.5q83 0 131.5 -47.5t48.5 -116.5q0 -109 -118 -164v-4q143 -58 143 -180q0 -85 -62.5 -139.5t-150.5 -54.5q-91 0 -151 51.5t-60 130.5q0 128 140 191zM506 691q-65 0 -101.5 -37t-36.5 -89q-1 -58 37 -92.5
t110 -52.5q120 41 120 145q0 51 -32 88.5t-97 37.5zM342 219v-6q0 -60 43 -101.5t114 -41.5q74 0 116.5 40.5t42.5 102.5q0 68 -42.5 106t-128.5 63q-69 -21 -107 -64t-38 -99zM179 842v-5q-103 -135 -103 -457t103 -457v-5h-38q-103 139 -103 462t103 462h38zM821 -82v5
q103 135 103 457t-103 457v5h38q103 -139 103 -462t-103 -462h-38z" />
    <glyph glyph-name="Japan1.8079" 
d="M349 27v49q120 -7 200 73.5t99 220.5l-2 -1q-65 -81 -164 -81q-85 0 -135 60t-50 146q0 98 58 168.5t150 70.5q88 0 142.5 -76t54.5 -207q0 -79 -17.5 -146.5t-45 -112.5t-63.5 -79t-71.5 -51.5t-70.5 -24.5q-51 -11 -85 -9zM497 689q-65 0 -105.5 -54t-40.5 -139
q1 -77 39.5 -121t102.5 -44q61 0 108 39.5t47 78.5q0 112 -38.5 176t-112.5 64zM179 842v-5q-103 -135 -103 -457t103 -457v-5h-38q-103 139 -103 462t103 462h38zM821 -82v5q103 135 103 457t-103 457v5h38q103 -139 103 -462t-103 -462h-38z" />
    <glyph glyph-name="Japan1.8080" 
d="M637 715q69 0 108.5 -87t39.5 -246q0 -173 -44.5 -255t-115.5 -82q-68 0 -109 86.5t-41 247.5q0 168 45 252t117 84zM630 93q54 0 79.5 83.5t25.5 204.5q0 126 -26.5 206t-78.5 80t-78.5 -80.5t-26.5 -205.5q0 -127 26.5 -207.5t78.5 -80.5zM179 842v-5
q-103 -135 -103 -457t103 -457v-5h-38q-103 139 -103 462t103 462h38zM821 -82v5q103 135 103 457t-103 457v5h38q103 -139 103 -462t-103 -462h-38zM299 47v614h-2l-100 -62l-10 39l120 75h40v-666h-48z" />
    <glyph glyph-name="Japan1.8081" 
d="M179 842v-5q-103 -135 -103 -457t103 -457v-5h-38q-103 139 -103 462t103 462h38zM821 -82v5q103 135 103 457t-103 457v5h38q103 -139 103 -462t-103 -462h-38zM332 47v614h-2l-101 -62l-9 39l120 75h40v-666h-48zM687 47v614h-2l-100 -62l-9 39l119 75h40v-666h-48z
" />
    <glyph glyph-name="Japan1.8082" 
d="M179 842v-5q-103 -135 -103 -457t103 -457v-5h-38q-103 139 -103 462t103 462h38zM821 -82v5q103 135 103 457t-103 457v5h38q103 -139 103 -462t-103 -462h-38zM299 47v614h-2l-100 -62l-10 39l120 75h40v-666h-48zM775 55h-295v32l49 71q4 6 30 43.5t33 48t28.5 44.5
t29.5 49.5t22.5 46t20.5 51t11 47.5t5 51q0 130 -98 130q-10 0 -19.5 -1.5t-18 -4.5t-14.5 -5.5t-13.5 -7t-11 -6.5t-9.5 -7t-7 -5l-14 38q50 45 116 45q67 0 104 -48t37 -126q0 -85 -46 -174.5t-130 -203.5l-43 -60v-2h233v-46z" />
    <glyph glyph-name="Japan1.8083" 
d="M179 842v-5q-103 -135 -103 -457t103 -457v-5h-38q-103 139 -103 462t103 462h38zM821 -82v5q103 135 103 457t-103 457v5h38q103 -139 103 -462t-103 -462h-38zM299 47v614h-2l-100 -62l-10 39l120 75h40v-666h-48zM472 78l16 43q46 -30 99 -30q61 0 93.5 40.5
t32.5 105.5q0 147 -166 147v43h20q45 0 86 34.5t41 95.5q0 53 -25 82.5t-71 29.5q-41 0 -86 -35l-15 40q45 41 112 41q65 0 101.5 -42.5t36.5 -106.5q0 -49 -27 -90.5t-75 -63.5v-2q51 -13 85.5 -56.5t34.5 -116.5q0 -81 -48 -136.5t-132 -55.5q-67 0 -113 33z" />
    <glyph glyph-name="Japan1.8084" 
d="M731 55h-46v188h-220v35l220 435h46v-426h74v-44h-74v-188zM518 287h167v221q0 71 4 128h-3l-54 -119l-114 -228v-2zM179 842v-5q-103 -135 -103 -457t103 -457v-5h-38q-103 139 -103 462t103 462h38zM821 -82v5q103 135 103 457t-103 457v5h38q103 -139 103 -462
t-103 -462h-38zM299 47v614h-2l-100 -62l-10 39l120 75h40v-666h-48z" />
    <glyph glyph-name="Japan1.8085" 
d="M179 842v-5q-103 -135 -103 -457t103 -457v-5h-38q-103 139 -103 462t103 462h38zM821 -82v5q103 135 103 457t-103 457v5h38q103 -139 103 -462t-103 -462h-38zM299 47v614h-2l-100 -62l-10 39l120 75h40v-666h-48zM506 417l43 288h215v-46h-176l-30 -199q7 2 26 2
t40 -5t45.5 -19t44.5 -34.5t33 -56.5t13 -81q0 -99 -51.5 -160t-131.5 -61q-66 0 -105 30l15 42q43 -26 89 -26q56 0 94 44.5t38 123.5q0 80 -40.5 120.5t-108.5 40.5q-17 0 -53 -3z" />
    <glyph glyph-name="Japan1.8086" 
d="M750 715v-49q-95 0 -152 -78.5t-70 -194.5h2q48 64 115 64q63 0 101 -53t38 -139q0 -92 -43 -156t-111 -64q-74 0 -113.5 73.5t-39.5 187.5q0 194 82.5 301.5t190.5 107.5zM635 88q39 0 69 41t30 135q0 76 -27.5 113.5t-73.5 37.5q-45 0 -75 -35.5t-30 -61.5
q0 -115 29 -172.5t78 -57.5zM179 842v-5q-103 -135 -103 -457t103 -457v-5h-38q-103 139 -103 462t103 462h38zM821 -82v5q103 135 103 457t-103 457v5h38q103 -139 103 -462t-103 -462h-38zM299 47v614h-2l-100 -62l-10 39l120 75h40v-666h-48z" />
    <glyph glyph-name="Japan1.8087" 
d="M179 842v-5q-103 -135 -103 -457t103 -457v-5h-38q-103 139 -103 462t103 462h38zM821 -82v5q103 135 103 457t-103 457v5h38q103 -139 103 -462t-103 -462h-38zM299 47v614h-2l-100 -62l-10 39l120 75h40v-666h-48zM485 705h293v-29l-214 -621h-48l206 602v2h-237v46z
" />
    <glyph glyph-name="Japan1.8088" 
d="M584 403v2q-46 27 -70.5 67t-24.5 83q0 71 43 115.5t104 44.5q66 0 102 -46t36 -105q0 -99 -98 -159v-3q116 -69 116 -179q0 -75 -47 -126.5t-118 -51.5q-73 0 -117 49.5t-44 116.5q0 118 118 192zM635 674q-45 0 -71 -32t-26 -81q0 -52 27.5 -83.5t75.5 -55.5
q85 51 85 136q0 51 -23.5 83.5t-67.5 32.5zM628 86q52 0 83 34.5t31 97.5q0 59 -30.5 96.5t-88.5 68.5q-45 -24 -76 -66t-31 -98q0 -60 30 -96.5t82 -36.5zM179 842v-5q-103 -135 -103 -457t103 -457v-5h-38q-103 139 -103 462t103 462h38zM821 -82v5q103 135 103 457
t-103 457v5h38q103 -139 103 -462t-103 -462h-38zM299 47v614h-2l-100 -62l-10 39l120 75h40v-666h-48z" />
    <glyph glyph-name="Japan1.8089" 
d="M514 45v49q92 0 150.5 77t71.5 196h-2q-48 -64 -116 -64q-62 0 -100.5 53t-38.5 139q0 92 43.5 156t111.5 64q74 0 113.5 -73.5t39.5 -187.5q0 -192 -82.5 -300.5t-190.5 -108.5zM629 672q-43 0 -71.5 -46t-28.5 -126q0 -79 28 -117t74 -38q44 0 74.5 35.5t30.5 61.5
q0 115 -29 172.5t-78 57.5zM179 842v-5q-103 -135 -103 -457t103 -457v-5h-38q-103 139 -103 462t103 462h38zM821 -82v5q103 135 103 457t-103 457v5h38q103 -139 103 -462t-103 -462h-38zM299 47v614h-2l-100 -62l-10 39l120 75h40v-666h-48z" />
    <glyph glyph-name="Japan1.8090" 
d="M657 45q-64 0 -101.5 86.5t-37.5 248.5q0 169 40.5 252t108.5 83q62 0 100 -85t38 -250q0 -172 -42 -253.5t-106 -81.5zM661 92q50 0 73 84t23 204q0 126 -24 207t-72 81t-71.5 -80.5t-23.5 -207.5q0 -126 23.5 -207t71.5 -81zM179 842v-5q-103 -135 -103 -457t103 -457
v-5h-38q-103 139 -103 462t103 462h38zM821 -82v5q103 135 103 457t-103 457v5h38q103 -139 103 -462t-103 -462h-38zM455 55h-266v30l45 73q1 2 21 33.5t24.5 39t22.5 38.5t24.5 44.5t20.5 42t19.5 47.5t13.5 45t11 49t3 46q0 61 -23.5 94t-65.5 33q-13 0 -25 -2.5
t-21.5 -7.5t-15.5 -8.5t-12.5 -9t-7.5 -5.5l-13 38q40 40 103 40q61 0 96 -46t35 -126q0 -83 -38.5 -169.5t-114.5 -205.5l-41 -66v-2h205v-45z" />
    <glyph glyph-name="Japan1.8091" 
d="M962 380q0 -192 -136 -327t-326 -135q-191 0 -326.5 135.5t-135.5 326.5t135.5 326.5t326.5 135.5t326.5 -135.5t135.5 -326.5zM500 814q-181 0 -307.5 -127.5t-126.5 -306.5q0 -180 127 -307t307 -127t307 127t127 307t-127 307t-307 127zM467 146h-244v29l42 50
q43 53 59.5 75t42.5 61t35.5 68.5t9.5 59.5q0 93 -81 93q-41 0 -80 -31l-12 33q43 37 100 37q60 0 89 -37.5t29 -89.5q0 -45 -22.5 -94t-47.5 -82t-75 -93l-33 -39v-2h188v-38zM675 140v435h-1l-76 -45l-10 35l92 55h40v-480h-45z" />
    <glyph glyph-name="Japan1.8092" 
d="M499 662q-21 0 -34 16t-13 35q0 21 14 36.5t35 15.5q20 0 33.5 -15.5t13.5 -36.5q0 -20 -14 -35.5t-35 -15.5zM529 -10h-59v561h59v-561z" />
    <glyph glyph-name="Japan1.8093" 
d="M351 663q-20 0 -33 16t-13 35q0 20 14 35.5t34 15.5t33.5 -15t13.5 -36q0 -20 -14 -35.5t-35 -15.5zM648 663q-21 0 -34 16t-13 35q0 20 14 35.5t34 15.5t33.5 -15t13.5 -36q0 -20 -13.5 -35.5t-34.5 -15.5zM381 -10h-58v561h58v-561zM677 -10h-58v561h58v-561z" />
    <glyph glyph-name="Japan1.8094" 
d="M291 664q-21 0 -34 15.5t-13 34.5q0 20 14.5 35.5t34.5 15.5q19 0 32.5 -15t13.5 -36q0 -20 -13.5 -35t-34.5 -15zM499 664q-20 0 -33 15.5t-13 34.5q0 20 14 35.5t34 15.5q19 0 32.5 -15t13.5 -36q0 -20 -13.5 -35t-34.5 -15zM707 664q-20 0 -33 15.5t-13 34.5
q0 20 14 35.5t34 15.5q19 0 33 -15.5t14 -35.5t-14 -35t-35 -15zM320 -10h-57v561h57v-561zM528 -10h-57v561h57v-561zM736 -10h-57v561h57v-561z" />
    <glyph glyph-name="Japan1.8095" 
d="M226 664q-22 0 -35 16t-13 34q0 20 14.5 35.5t33.5 15.5q20 0 33.5 -15t13.5 -36q0 -19 -13.5 -34.5t-33.5 -15.5zM254 -10h-57v561h57v-561zM356 551h63l130 -334l59 -159h1q42 110 63 159l132 334h62l-236 -561h-47z" />
    <glyph glyph-name="Japan1.8096" 
d="M226 551h65l142 -341q44 -109 63 -163h3q37 96 67 163l146 341h63l-256 -561h-48z" />
    <glyph glyph-name="Japan1.8097" 
d="M776 664q-23 0 -36 16t-13 34q0 21 13.5 36t33.5 15q19 0 33.5 -15.5t14.5 -35.5q0 -19 -13.5 -34.5t-32.5 -15.5zM134 551h63l129 -334l59 -159h2q27 74 63 159l132 334h62l-236 -561h-47zM803 -10h-57v561h57v-561z" />
    <glyph glyph-name="Japan1.8098" 
d="M672 666q-22 0 -35 15t-13 34q0 20 13.5 34.5t32.5 14.5t33 -14.5t14 -34.5q0 -19 -13 -34t-32 -15zM852 666q-24 0 -36.5 15.5t-12.5 33.5q0 20 13.5 34.5t32.5 14.5t33 -14.5t14 -34.5q0 -19 -13 -34t-31 -15zM96 551h62l122 -334q28 -74 57 -160h1l60 160l128 334h60
l-226 -561h-48zM698 -10h-55v561h55v-561zM877 -10h-55v561h55v-561z" />
    <glyph glyph-name="Japan1.8099" 
d="M590 667q-21 0 -33.5 15.5t-12.5 33.5q0 20 12.5 34.5t30.5 14.5t31 -15t13 -34t-12 -34t-29 -15zM734 667q-20 0 -32.5 15.5t-12.5 33.5q0 20 12.5 34.5t30.5 14.5t31 -15t13 -34t-12.5 -34t-29.5 -15zM879 667q-20 0 -32.5 15.5t-12.5 33.5q0 20 12.5 34.5t30.5 14.5
t31 -15t13 -34t-12.5 -34t-29.5 -15zM80 551h54l109 -334l49 -160h1q28 89 53 160l112 334h53l-199 -561h-42zM613 -10h-50v561h50v-561zM758 -10h-50v561h50v-561zM903 -10h-50v561h50v-561z" />
    <glyph glyph-name="Japan1.8100" 
d="M235 664q-22 0 -35.5 15.5t-13.5 34.5q0 21 13.5 36t32.5 15q20 0 34 -15.5t14 -35.5t-13 -35t-32 -15zM262 -10h-57v561h57v-561zM381 551h63l98 -139l64 -94h4l66 98l95 135h59l-191 -269l208 -292h-64l-102 143q-9 14 -25.5 36.5t-29 40.5t-22.5 34h-2
q-53 -77 -76 -107l-106 -147h-62l215 290z" />
    <glyph glyph-name="Japan1.8101" 
d="M256 551h69l108 -139l71 -94h2l73 98l106 135h66l-215 -268l232 -293h-69l-113 143l-84 111h-3l-83 -108l-118 -146h-68l239 290z" />
    <glyph glyph-name="Japan1.8102" 
d="M962 380q0 -192 -136 -327t-326 -135q-191 0 -326.5 135.5t-135.5 326.5t135.5 326.5t326.5 135.5t326.5 -135.5t135.5 -326.5zM500 814q-181 0 -307.5 -127.5t-126.5 -306.5q0 -180 127 -307t307 -127t307 127t127 307t-127 307t-307 127zM466 146h-243v29l42 50
q54 67 77.5 98.5t46 78.5t22.5 87q0 93 -81 93q-39 0 -80 -31l-12 33q43 37 101 37q60 0 88.5 -37.5t28.5 -89.5q0 -64 -35 -122.5t-109 -146.5l-34 -39v-2h188v-38zM794 146h-243v29l41 50q54 67 77.5 98.5t46 78.5t22.5 87q0 93 -81 93q-40 0 -79 -31l-12 33q41 37 100 37
q60 0 88.5 -37.5t28.5 -89.5q0 -64 -35 -122.5t-109 -146.5l-33 -39v-2h188v-38z" />
    <glyph glyph-name="Japan1.8103" 
d="M962 380q0 -192 -136 -327t-326 -135q-191 0 -326.5 135.5t-135.5 326.5t135.5 326.5t326.5 135.5t326.5 -135.5t135.5 -326.5zM500 814q-181 0 -307.5 -127.5t-126.5 -306.5q0 -180 127 -307t307 -127t307 127t127 307t-127 307t-307 127zM466 146h-243v29l42 50
q54 67 77.5 98.5t46 78.5t22.5 87q0 93 -81 93q-39 0 -80 -31l-12 33q43 37 101 37q60 0 88.5 -37.5t28.5 -89.5q0 -64 -35 -122.5t-109 -146.5l-34 -39v-2h188v-38zM541 164l14 36q37 -22 87 -22q53 0 79 27.5t26 68.5q0 30 -11.5 51t-26 31t-38 15.5t-36 6t-32.5 0.5v37
h22q39 0 73 23.5t34 67.5q0 35 -21 55.5t-60 20.5q-40 0 -77 -25l-13 34q40 30 98 30t88 -31t30 -77q0 -38 -21.5 -68t-60.5 -43v-2q43 -9 70.5 -40.5t27.5 -82.5q0 -57 -40 -97.5t-113 -40.5q-59 0 -99 25z" />
    <glyph glyph-name="Japan1.8104" 
d="M962 380q0 -192 -136 -327t-326 -135q-191 0 -326.5 135.5t-135.5 326.5t135.5 326.5t326.5 135.5t326.5 -135.5t135.5 -326.5zM500 814q-181 0 -307.5 -127.5t-126.5 -306.5q0 -180 127 -307t307 -127t307 127t127 307t-127 307t-307 127zM748 140h-42v132h-186v31
l186 317h42v-311h58v-37h-58v-132zM562 309h144v180q0 28 4 80h-3q-13 -31 -37 -75l-108 -184v-1zM467 146h-244v29l42 50q43 53 59.5 75t42.5 61t35.5 68.5t9.5 59.5q0 93 -81 93q-41 0 -80 -31l-12 33q43 37 100 37q60 0 89 -37.5t29 -89.5q0 -45 -22.5 -94t-47.5 -82
t-75 -93l-33 -39v-2h188v-38z" />
    <glyph glyph-name="Japan1.8105" 
d="M962 380q0 -192 -136 -327t-326 -135q-191 0 -326.5 135.5t-135.5 326.5t135.5 326.5t326.5 135.5t326.5 -135.5t135.5 -326.5zM500 814q-181 0 -307.5 -127.5t-126.5 -306.5q0 -180 127 -307t307 -127t307 127t127 307t-127 307t-307 127zM467 146h-244v29l42 50
q43 53 59.5 75t42.5 61t35.5 68.5t9.5 59.5q0 93 -81 93q-41 0 -80 -31l-12 33q43 37 100 37q60 0 89 -37.5t29 -89.5q0 -45 -22.5 -94t-47.5 -82t-75 -93l-33 -39v-2h188v-38zM781 614v-38h-146l-21 -138q9 2 28 2q54 0 97 -38.5t43 -104.5q0 -69 -42 -113.5t-105 -44.5
q-57 0 -91 25l13 35q34 -21 78 -21q43 0 72.5 30t29.5 80q0 63 -34.5 89t-83.5 26q-31 0 -48 -3l29 214h181z" />
    <glyph glyph-name="Japan1.8106" 
d="M962 380q0 -192 -136 -327t-326 -135q-191 0 -326.5 135.5t-135.5 326.5t135.5 326.5t326.5 135.5t326.5 -135.5t135.5 -326.5zM500 814q-181 0 -307.5 -127.5t-126.5 -306.5q0 -180 127 -307t307 -127t307 127t127 307t-127 307t-307 127zM768 621v-41
q-64 5 -115.5 -43.5t-63.5 -145.5h2q37 49 94 49q52 0 83.5 -39.5t31.5 -100.5q0 -66 -36.5 -113.5t-95.5 -47.5q-58 0 -91.5 52t-33.5 139q0 73 20 131.5t53 93t72 52t80 14.5zM756 296q0 53 -23 80.5t-59 27.5q-34 0 -60.5 -22.5t-26.5 -55.5q0 -73 22.5 -112t63.5 -39
q38 0 60.5 32.5t22.5 88.5zM467 146h-244v29l42 50q43 53 59.5 75t42.5 61t35.5 68.5t9.5 59.5q0 93 -81 93q-41 0 -80 -31l-12 33q43 37 100 37q60 0 89 -37.5t29 -89.5q0 -45 -22.5 -94t-47.5 -82t-75 -93l-33 -39v-2h188v-38z" />
    <glyph glyph-name="Japan1.8107" 
d="M962 380q0 -192 -136 -327t-326 -135q-191 0 -326.5 135.5t-135.5 326.5t135.5 326.5t326.5 135.5t326.5 -135.5t135.5 -326.5zM500 814q-181 0 -307.5 -127.5t-126.5 -306.5q0 -180 127 -307t307 -127t307 127t127 307t-127 307t-307 127zM466 146h-243v29l42 50
q54 67 77.5 98.5t46 78.5t22.5 87q0 93 -81 93q-39 0 -80 -31l-12 33q43 37 101 37q60 0 88.5 -37.5t28.5 -89.5q0 -64 -35 -122.5t-109 -146.5l-34 -39v-2h188v-38zM548 614h243v-29l-179 -445h-42l175 434v2h-197v38z" />
    <glyph glyph-name="Japan1.8108" 
d="M620 395v1q-74 38 -74 107q0 52 36.5 84.5t89.5 32.5q55 0 86 -32.5t31 -77.5q0 -72 -76 -112v-2q91 -44 91 -127q0 -56 -40 -93t-98 -37q-61 0 -99 35.5t-38 85.5q0 84 91 135zM670 587q-39 0 -60.5 -23.5t-21.5 -57.5q0 -65 88 -96q71 31 71 95q0 36 -19.5 59t-57.5 23
zM666 173q45 0 70 25.5t25 67.5q0 77 -102 114q-87 -36 -87 -112q0 -42 25 -68.5t69 -26.5zM962 380q0 -192 -136 -327t-326 -135q-191 0 -326.5 135.5t-135.5 326.5t135.5 326.5t326.5 135.5t326.5 -135.5t135.5 -326.5zM500 814q-181 0 -307.5 -127.5t-126.5 -306.5
q0 -180 127 -307t307 -127t307 127t127 307t-127 307t-307 127zM466 146h-243v29l42 50q54 67 77.5 98.5t46 78.5t22.5 87q0 93 -81 93q-39 0 -80 -31l-12 33q43 37 101 37q60 0 88.5 -37.5t28.5 -89.5q0 -64 -35 -122.5t-109 -146.5l-34 -39v-2h188v-38z" />
    <glyph glyph-name="Japan1.8109" 
d="M962 380q0 -192 -136 -327t-326 -135q-191 0 -326.5 135.5t-135.5 326.5t135.5 326.5t326.5 135.5t326.5 -135.5t135.5 -326.5zM500 814q-181 0 -307.5 -127.5t-126.5 -306.5q0 -180 127 -307t307 -127t307 127t127 307t-127 307t-307 127zM580 139v41q27 -2 53.5 6.5
t53 28.5t46 60t26.5 94h-2q-37 -49 -94 -49q-52 0 -83.5 39.5t-31.5 100.5q0 66 36.5 113.5t95.5 47.5q58 0 92 -52t34 -139q0 -139 -68 -218t-158 -73zM592 464q0 -53 23 -80.5t59 -27.5q34 0 60.5 22.5t26.5 55.5q0 73 -22.5 112t-63.5 39q-38 0 -60.5 -32.5t-22.5 -88.5z
M467 146h-244v29l42 50q43 53 59.5 75t42.5 61t35.5 68.5t9.5 59.5q0 93 -81 93q-41 0 -80 -31l-12 33q43 37 100 37q60 0 89 -37.5t29 -89.5q0 -45 -22.5 -94t-47.5 -82t-75 -93l-33 -39v-2h188v-38z" />
    <glyph glyph-name="Japan1.8110" 
d="M962 380q0 -192 -136 -327t-326 -135q-191 0 -326.5 135.5t-135.5 326.5t135.5 326.5t326.5 135.5t326.5 -135.5t135.5 -326.5zM500 814q-181 0 -307.5 -127.5t-126.5 -306.5q0 -180 127 -307t307 -127t307 127t127 307t-127 307t-307 127zM671 139q-62 0 -95 67.5
t-33 171.5q0 118 38 180.5t98 62.5t93 -61.5t33 -176.5q0 -123 -36.5 -183.5t-97.5 -60.5zM674 177q86 0 86 204q0 92 -21 147t-64 55q-36 0 -61 -49t-25 -159q0 -91 22 -144.5t63 -53.5zM218 164l13 36q37 -22 86 -22q53 0 78.5 28.5t25.5 69.5q-1 49 -35 75.5t-86 26.5
h-21v37h21q38 0 71.5 23.5t33.5 67.5q0 35 -20.5 55.5t-58.5 20.5q-41 0 -76 -25l-13 34q42 30 97 30q57 0 86.5 -31t29.5 -77q0 -38 -21 -68t-60 -43v-2q42 -9 70 -41t28 -82q0 -57 -40 -97.5t-112 -40.5q-59 0 -97 25z" />
    <glyph glyph-name="Japan1.8111" 
d="M962 380q0 -192 -136 -327t-326 -135q-191 0 -326.5 135.5t-135.5 326.5t135.5 326.5t326.5 135.5t326.5 -135.5t135.5 -326.5zM500 814q-181 0 -307.5 -127.5t-126.5 -306.5q0 -180 127 -307t307 -127t307 127t127 307t-127 307t-307 127zM223 164l12 36q37 -22 86 -22
q52 0 78 28.5t26 69.5q-1 49 -35 75.5t-86 26.5h-21v37h21q38 0 71.5 23.5t33.5 67.5q0 35 -20.5 55.5t-59.5 20.5q-38 0 -75 -25l-13 34q40 30 97 30t86.5 -31t29.5 -77q0 -38 -21 -68t-60 -43v-2q42 -9 70 -41t28 -82q0 -57 -40 -97.5t-112 -40.5q-59 0 -96 25zM675 140
v435h-1l-76 -45l-10 35l92 55h40v-480h-45z" />
    <glyph glyph-name="Japan1.8112" 
d="M676 414v-192q0 -78 9 -127h-51l-7 82h-2q-19 -37 -60.5 -60.5t-98.5 -23.5q-69 0 -106.5 41t-37.5 97q0 89 76 136.5t224 47.5q0 157 -124 157q-69 0 -125 -40l-16 39q64 43 148 43q171 0 171 -200zM623 262v113q-44 0 -84 -6t-79 -19.5t-62.5 -41.5t-23.5 -67
q0 -52 28.5 -79t69.5 -27q57 0 94.5 27.5t53.5 69.5q3 11 3 30zM179 842v-5q-103 -135 -103 -457t103 -457v-5h-38q-103 139 -103 462t103 462h38zM821 -82v5q103 135 103 457t-103 457v5h38q103 -139 103 -462t-103 -462h-38z" />
    <glyph glyph-name="Japan1.8113" 
d="M327 132v617h53v-310h2q22 45 60.5 68.5t85.5 23.5q78 0 125.5 -69t47.5 -188q0 -129 -53.5 -197t-129.5 -68q-98 0 -140 90h-3l-4 -88h-48q4 60 4 121zM380 326v-122q0 -46 34 -98t96 -52q65 0 101.5 62.5t36.5 156.5q0 90 -35.5 151.5t-101.5 61.5q-54 0 -92.5 -49
t-38.5 -111zM178 842v-5q-103 -135 -103 -457t103 -457v-5h-37q-103 139 -103 462t103 462h37zM822 -82v5q103 135 103 457t-103 457v5h37q103 -139 103 -462t-103 -462h-37z" />
    <glyph glyph-name="Japan1.8114" 
d="M178 842v-5q-103 -135 -103 -457t103 -457v-5h-37q-103 139 -103 462t103 462h37zM822 -82v5q103 135 103 457t-103 457v5h37q103 -139 103 -462t-103 -462h-37zM658 165l15 -43q-53 -29 -129 -29q-101 0 -163 70t-62 185q0 117 67.5 191.5t173.5 74.5q77 0 115 -27
l-17 -43q-46 26 -103 26q-84 0 -133.5 -65t-49.5 -153q0 -97 50 -156t129 -59q57 0 107 28z" />
    <glyph glyph-name="Japan1.8115" 
d="M619 749h53v-617q0 -59 4 -121h-47l-4 89h-3q-46 -91 -142 -91q-78 0 -127.5 68.5t-49.5 186.5q0 126 53 196t132 70q86 0 129 -76h2v295zM619 208v120q0 71 -37 114.5t-88 43.5q-65 0 -101.5 -62.5t-36.5 -156.5q0 -90 34.5 -151.5t99.5 -61.5q57 0 93 47.5t36 106.5z
M178 842v-5q-103 -135 -103 -457t103 -457v-5h-37q-103 139 -103 462t103 462h37zM822 -82v5q103 135 103 457t-103 457v5h37q103 -139 103 -462t-103 -462h-37z" />
    <glyph glyph-name="Japan1.8116" 
d="M694 357h-338q-4 -107 47 -164t127 -57q70 0 126 30l12 -42q-55 -31 -146 -31q-101 0 -160 69.5t-59 180.5q0 125 60 198t151 73q53 0 91 -22.5t56 -59t26 -71.5t8 -71q0 -24 -1 -33zM356 398h288q2 69 -31.5 121.5t-104.5 52.5q-66 0 -105.5 -53t-46.5 -121zM178 842v-5
q-103 -135 -103 -457t103 -457v-5h-37q-103 139 -103 462t103 462h37zM822 -82v5q103 135 103 457t-103 457v5h37q103 -139 103 -462t-103 -462h-37z" />
    <glyph glyph-name="Japan1.8117" 
d="M178 842v-5q-103 -135 -103 -457t103 -457v-5h-37q-103 139 -103 462t103 462h37zM822 -82v5q103 135 103 457t-103 457v5h37q103 -139 103 -462t-103 -462h-37zM483 11h-53v445h-75v42h75q0 35 1 55t6 51.5t17.5 56.5t32.5 45q49 44 118 44q50 0 82 -19l-16 -41
q-30 16 -67 16q-29 0 -51 -9.5t-34.5 -29t-20.5 -37.5t-11 -46.5t-3.5 -44t-0.5 -41.5h143v-42h-143v-445z" />
    <glyph glyph-name="Japan1.8118" 
d="M674 506v-294q0 -38 -1.5 -62.5t-7 -61.5t-19 -61.5t-34.5 -48.5t-57 -36t-84 -12q-81 0 -130 35l16 43q50 -34 120 -34q65 0 104 45.5t39 140.5v67h-2q-39 -79 -136 -79q-81 0 -129.5 68.5t-48.5 178.5q0 128 56.5 195t131.5 67q93 0 132 -82h2l2 81h49q-3 -105 -3 -150
zM620 341v127q0 59 -36 101.5t-87 42.5q-63 0 -101.5 -59.5t-38.5 -153.5t37.5 -151t100.5 -57q49 0 87 42t38 108zM178 842v-5q-103 -135 -103 -457t103 -457v-5h-37q-103 139 -103 462t103 462h37zM822 -82v5q103 135 103 457t-103 457v5h37q103 -139 103 -462t-103 -462
h-37z" />
    <glyph glyph-name="Japan1.8119" 
d="M178 842v-5q-103 -135 -103 -457t103 -457v-5h-37q-103 139 -103 462t103 462h37zM822 -82v5q103 135 103 457t-103 457v5h37q103 -139 103 -462t-103 -462h-37zM326 11v738h54v-309h2q20 38 60 64.5t90 26.5q22 0 44.5 -8t48.5 -27.5t42.5 -62t16.5 -101.5v-321h-54v317
q0 68 -27 113t-88 45q-49 0 -92 -40t-43 -114v-321h-54z" />
    <glyph glyph-name="Japan1.8120" 
d="M178 842v-5q-103 -135 -103 -457t103 -457v-5h-37q-103 139 -103 462t103 462h37zM822 -82v5q103 135 103 457t-103 457v5h37q103 -139 103 -462t-103 -462h-37zM499 639q-19 0 -30.5 14.5t-11.5 32.5q0 19 13 33.5t30 14.5t30 -14t13 -34q0 -18 -13 -32.5t-31 -14.5z
M526 25h-53v519h53v-519z" />
    <glyph glyph-name="Japan1.8121" 
d="M178 842v-5q-103 -135 -103 -457t103 -457v-5h-37q-103 139 -103 462t103 462h37zM822 -82v5q103 135 103 457t-103 457v5h37q103 -139 103 -462t-103 -462h-37zM513 666q-18 0 -30 14.5t-12 32.5q0 20 13 34t31 14q17 0 29.5 -14t12.5 -34q0 -18 -13 -32.5t-31 -14.5z
M346 -59l-6 42q69 2 107 41q23 23 31.5 64t8.5 138v338h53v-372q0 -25 -0.5 -40t-4 -44t-10.5 -48t-21.5 -43t-34.5 -38.5t-51.5 -25.5t-71.5 -12z" />
    <glyph glyph-name="Japan1.8122" 
d="M178 842v-5q-103 -135 -103 -457t103 -457v-5h-37q-103 139 -103 462t103 462h37zM822 -82v5q103 135 103 457t-103 457v5h37q103 -139 103 -462t-103 -462h-37zM390 749v-471h2q6 9 13.5 19t17 22t15.5 19l164 192h62l-192 -217l215 -302h-62l-189 267l-46 -54v-213h-53
v738h53z" />
    <glyph glyph-name="Japan1.8123" 
d="M178 842v-5q-103 -135 -103 -457t103 -457v-5h-37q-103 139 -103 462t103 462h37zM822 -82v5q103 135 103 457t-103 457v5h37q103 -139 103 -462t-103 -462h-37zM473 11v738h53v-738h-53z" />
    <glyph glyph-name="Japan1.8124" 
d="M178 842v-5q-103 -135 -103 -457t103 -457v-5h-37q-103 139 -103 462t103 462h37zM822 -82v5q103 135 103 457t-103 457v5h37q103 -139 103 -462t-103 -462h-37zM261 94v394q0 63 -5 125h43l2 -66h4q30 67 103 67q80 0 102 -70h3q28 70 114 70q51 0 81.5 -36t30.5 -115
v-369h-50v344q0 30 -1.5 46.5t-8.5 39t-24 33.5t-45 11q-30 0 -54 -22.5t-30 -65.5q-2 -18 -2 -52v-334h-49v350q0 57 -16.5 90.5t-63.5 33.5q-33 0 -55.5 -24t-27.5 -73q-1 -16 -1 -45v-332h-50z" />
    <glyph glyph-name="Japan1.8125" 
d="M178 842v-5q-103 -135 -103 -457t103 -457v-5h-37q-103 139 -103 462t103 462h37zM822 -82v5q103 135 103 457t-103 457v5h37q103 -139 103 -462t-103 -462h-37zM321 94v390q0 28 -1.5 71t-1.5 58h47l3 -92h2q20 42 60.5 67t92.5 25q23 0 46.5 -8t50 -27.5t43 -61.5
t16.5 -101v-321h-54v316q0 69 -27.5 114t-89.5 45q-51 0 -92 -42t-41 -111v-322h-54z" />
    <glyph glyph-name="Japan1.8126" 
d="M500 93q-87 0 -142.5 69.5t-55.5 188.5q0 126 58.5 194.5t140.5 68.5q87 0 142 -68.5t55 -189.5q0 -131 -60.5 -197t-137.5 -66zM499 135q67 0 106.5 67.5t39.5 152.5q0 49 -12.5 95t-47 83.5t-85.5 37.5q-50 0 -84 -36t-47.5 -83t-13.5 -99q0 -89 38 -153.5t106 -64.5z
M178 842v-5q-103 -135 -103 -457t103 -457v-5h-37q-103 139 -103 462t103 462h37zM822 -82v5q103 135 103 457t-103 457v5h37q103 -139 103 -462t-103 -462h-37z" />
    <glyph glyph-name="Japan1.8127" 
d="M326 -59v549q0 80 -4 166h51l3 -92h2q48 93 145 93q80 0 129 -68.5t49 -185.5q0 -133 -52.5 -200t-136.5 -67q-91 0 -130 79h-3v-274h-53zM379 450v-114q0 -59 34.5 -107t94.5 -48q67 0 103.5 62.5t36.5 157.5q0 89 -36 150.5t-102 61.5q-43 0 -79 -34.5t-46 -86.5
q-6 -26 -6 -42zM178 842v-5q-103 -135 -103 -457t103 -457v-5h-37q-103 139 -103 462t103 462h37zM822 -82v5q103 135 103 457t-103 457v5h37q103 -139 103 -462t-103 -462h-37z" />
    <glyph glyph-name="Japan1.8128" 
d="M620 -59v277h-2q-16 -35 -52 -58.5t-85 -23.5q-80 0 -131 68t-51 186q0 131 57.5 199t138.5 68q44 0 78.5 -22t52.5 -61l2 -1l2 83h49q-5 -55 -5 -150v-565h-54zM620 336v121q0 74 -38.5 115t-87.5 41q-67 0 -104.5 -61.5t-37.5 -157.5q0 -90 35.5 -151.5t104.5 -61.5
q52 0 90 45.5t38 109.5zM178 842v-5q-103 -135 -103 -457t103 -457v-5h-37q-103 139 -103 462t103 462h37zM822 -82v5q103 135 103 457t-103 457v5h37q103 -139 103 -462t-103 -462h-37z" />
    <glyph glyph-name="Japan1.8129" 
d="M178 842v-5q-103 -135 -103 -457t103 -457v-5h-37q-103 139 -103 462t103 462h37zM822 -82v5q103 135 103 457t-103 457v5h37q103 -139 103 -462t-103 -462h-37zM376 94v296q0 154 -5 223h51l3 -154h4q62 155 198 155q21 0 41 -5v-48q-12 4 -36 4q-20 0 -33 -1
t-37.5 -9.5t-42.5 -24t-40 -48t-38 -78.5q-12 -28 -12 -61v-249h-53z" />
    <glyph glyph-name="Japan1.8130" 
d="M178 842v-5q-103 -135 -103 -457t103 -457v-5h-37q-103 139 -103 462t103 462h37zM822 -82v5q103 135 103 457t-103 457v5h37q103 -139 103 -462t-103 -462h-37zM326 131l16 43q64 -39 142 -39q66 0 101.5 30t35.5 67q0 42 -30.5 64.5t-98.5 41.5q-85 24 -116.5 58
t-31.5 82q0 54 46 95t132 41q74 0 132 -34l-18 -40q-55 32 -125 32q-51 0 -83 -27t-32 -61q0 -42 27.5 -63t97.5 -41q83 -24 117.5 -58.5t34.5 -90.5q0 -57 -50.5 -97.5t-143.5 -40.5q-84 0 -153 38z" />
    <glyph glyph-name="Japan1.8131" 
d="M178 842v-5q-103 -135 -103 -457t103 -457v-5h-37q-103 139 -103 462t103 462h37zM822 -82v5q103 135 103 457t-103 457v5h37q103 -139 103 -462t-103 -462h-37zM432 672l54 18v-110h160v-42h-160v-321q0 -106 81 -106q38 0 65 9l6 -39q-36 -14 -77 -14q-129 0 -129 159
v312h-92v42h92v92z" />
    <glyph glyph-name="Japan1.8132" 
d="M178 842v-5q-103 -135 -103 -457t103 -457v-5h-37q-103 139 -103 462t103 462h37zM822 -82v5q103 135 103 457t-103 457v5h37q103 -139 103 -462t-103 -462h-37zM679 613v-385q0 -56 4 -134l-47 -1l-4 87h-1q-52 -87 -155 -87q-66 0 -110.5 47t-44.5 164v309h54v-299
q0 -176 114 -176q54 0 95 42t41 106v327h54z" />
    <glyph glyph-name="Japan1.8133" 
d="M178 842v-5q-103 -135 -103 -457t103 -457v-5h-37q-103 139 -103 462t103 462h37zM822 -82v5q103 135 103 457t-103 457v5h37q103 -139 103 -462t-103 -462h-37zM305 613h56l99 -320q23 -76 37 -132h3q22 76 41 132l100 320h53l-175 -518h-44z" />
    <glyph glyph-name="Japan1.8134" 
d="M178 842v-5q-103 -135 -103 -457t103 -457v-5h-37q-103 139 -103 462t103 462h37zM822 -82v5q103 135 103 457t-103 457v5h37q103 -139 103 -462t-103 -462h-37zM236 613h51l62 -264q23 -96 36 -162h3q31 147 34 160l63 266h34l61 -257q20 -83 37 -169h4q18 86 36 164
l58 262h46l-126 -519h-33l-73 292q-12 55 -25 145h-4q-6 -39 -27 -149l-69 -288h-36z" />
    <glyph glyph-name="Japan1.8135" 
d="M178 842v-5q-103 -135 -103 -457t103 -457v-5h-37q-103 139 -103 462t103 462h37zM822 -82v5q103 135 103 457t-103 457v5h37q103 -139 103 -462t-103 -462h-37zM328 613h57l117 -219h3q33 63 51 96l66 123h54l-147 -254l151 -265h-57l-72 130l-52 100h-1l-52 -100
l-72 -130h-54l152 263z" />
    <glyph glyph-name="Japan1.8136" 
d="M178 842v-5q-103 -135 -103 -457t103 -457v-5h-37q-103 139 -103 462t103 462h37zM822 -82v5q103 135 103 457t-103 457v5h37q103 -139 103 -462t-103 -462h-37zM310 660h57l101 -322q30 -95 32 -103h2q5 17 18.5 55t17.5 51l97 319h55l-121 -355q-5 -15 -17 -46t-16 -43
t-13.5 -36.5t-14 -34.5t-12.5 -29t-13.5 -28t-13.5 -23.5t-15 -23.5t-15.5 -19.5t-18.5 -20.5q-43 -44 -84 -60l-18 43q34 15 62.5 39.5t45 48t28 47t15.5 37.5t4 18q0 7 -5 22z" />
    <glyph glyph-name="Japan1.8137" 
d="M178 842v-5q-103 -135 -103 -457t103 -457v-5h-37q-103 139 -103 462t103 462h37zM822 -82v5q103 135 103 457t-103 457v5h37q103 -139 103 -462t-103 -462h-37zM330 103v32l229 351q2 2 14.5 20.5t23 35t10.5 17.5h-256v45h319v-32l-231 -353q-23 -39 -46 -69v-3h277
v-44h-340z" />
    <glyph glyph-name="Japan1.8184" 
d="M223 323v411h-1l-82 -45l-9 37l96 53h45v-456h-49zM241 -20h-47l492 800h48zM911 -13h-328v31l52 44q129 110 171 157.5t42 97.5q0 41 -25.5 70t-79.5 29q-59 0 -118 -52l-23 33q63 61 148 61q72 0 109.5 -41.5t37.5 -92.5q0 -44 -25.5 -87t-62.5 -78t-113 -98l-39 -31
v-1h254v-42z" />
    <glyph glyph-name="Japan1.8185" 
d="M843 -19h-48v116h-257v34l255 325h50v-318h83v-41h-83v-116zM593 138h203v203q0 40 1 60l-4 1q-7 -12 -19 -31t-16 -25l-165 -207v-1zM222 323v411h-1l-82 -45l-9 37l96 53h45v-456h-49zM252 -20h-47l491 800h48z" />
    <glyph glyph-name="Japan1.8224" 
d="M962 380q0 -192 -136 -327t-326 -135q-191 0 -326.5 135.5t-135.5 326.5t135.5 326.5t326.5 135.5t326.5 -135.5t135.5 -326.5zM500 814q-181 0 -307.5 -127.5t-126.5 -306.5q0 -180 127 -307t307 -127t307 127t127 307t-127 307t-307 127zM495 122q-84 0 -131.5 74
t-47.5 180q0 125 55.5 194t134.5 69q83 0 130 -65t47 -183q0 -130 -49.5 -199.5t-138.5 -69.5zM499 161q67 0 100.5 58t33.5 165q0 215 -133 215q-21 0 -41.5 -9.5t-43 -32t-36 -70t-13.5 -114.5q0 -99 36 -155.5t97 -56.5z" />
    <glyph glyph-name="Japan1.8225" 
d="M681 -10h-67l-114 184q-100 161 -112 182h-1l-103 -181l-107 -185h-65l246 401l-226 378h66l122 -209q33 -56 75 -133h2q40 74 75 132l122 210h65l-234 -378zM797 769h57v-779h-57v779z" />
    <glyph glyph-name="Japan1.8226" 
d="M581 -10h-65l-102 182q-80 142 -100 181h-2q-9 -19 -20.5 -42t-32.5 -63.5t-39 -74.5l-96 -183h-63l223 401l-204 378h63l110 -208l67 -132h1l67 131l109 209h64l-212 -377zM664 769h55v-779h-55v779zM853 769h55v-779h-55v779z" />
    <glyph glyph-name="Japan1.8227" 
d="M493 26q-95 0 -147.5 99.5t-52.5 250.5q0 175 61 265.5t152 90.5t146 -88t55 -258q0 -178 -57.5 -269t-156.5 -91zM498 72q54 0 90 44t50 111t14 155q0 138 -38 221t-115 83q-61 0 -106 -76t-45 -242q0 -134 40.5 -215t109.5 -81zM179 842v-5q-103 -135 -103 -457
t103 -457v-5h-38q-103 139 -103 462t103 462h38zM821 -82v5q103 135 103 457t-103 457v5h38q103 -139 103 -462t-103 -462h-38z" />
    <glyph glyph-name="Japan1.8228" 
d="M726 767l39 -26l-62 -97q56 -95 56 -264q0 -193 -70 -293t-188 -100q-107 0 -173 80l-54 -87l-39 26l64 100q-58 102 -58 273q0 184 76 282.5t183 98.5q108 0 173 -77zM342 169l297 464q-51 79 -139 79q-84 0 -140 -88.5t-56 -257.5q0 -118 38 -197zM660 581l-298 -465
q52 -81 135 -81q54 0 94 28.5t62 78t32.5 108t10.5 126.5q0 126 -36 205z" />
    <glyph glyph-name="Japan1.8286" 
d="M500 842q192 0 327 -136t135 -326q0 -191 -135.5 -326.5t-326.5 -135.5t-326.5 135.5t-135.5 326.5t135.5 326.5t326.5 135.5zM463 549v-433h100v526h-87l-129 -62l18 -78l96 47h2z" />
    <glyph glyph-name="Japan1.8287" 
d="M500 842q192 0 327 -136t135 -326q0 -191 -135.5 -326.5t-326.5 -135.5t-326.5 135.5t-135.5 326.5t135.5 326.5t326.5 135.5zM314 119h372v85h-223v1l47 38q85 75 124.5 128.5t39.5 116.5q0 68 -47 114.5t-134 46.5q-99 0 -171 -58l32 -73q60 47 118 47q51 0 74.5 -25
t23.5 -63q0 -46 -39.5 -93t-151.5 -146l-65 -57v-62z" />
    <glyph glyph-name="Japan1.8288" 
d="M500 842q192 0 327 -136t135 -326q0 -191 -135.5 -326.5t-326.5 -135.5t-326.5 135.5t-135.5 326.5t135.5 326.5t326.5 135.5zM339 226l-24 -78q62 -39 157 -39q99 0 156 45t57 113q0 50 -34 85t-86 44v2q100 33 100 122q0 54 -45 91.5t-126 37.5q-94 0 -161 -42l24 -76
q49 34 115 34q43 0 65 -17.5t22 -44.5q0 -34 -32 -51.5t-74 -17.5h-50v-76h50q50 0 87.5 -22.5t37.5 -63.5q0 -31 -27.5 -55t-83.5 -24q-70 0 -128 33z" />
    <glyph glyph-name="Japan1.8289" 
d="M500 842q192 0 327 -136t135 -326q0 -191 -135.5 -326.5t-326.5 -135.5t-326.5 135.5t-135.5 326.5t135.5 326.5t326.5 135.5zM530 116h100v130h69v81h-69v315h-125l-224 -326v-70h249v-130zM530 474v-147h-149v2l105 147q27 47 44 85h3q-3 -45 -3 -87z" />
    <glyph glyph-name="Japan1.8290" 
d="M500 842q192 0 327 -136t135 -326q0 -191 -135.5 -326.5t-326.5 -135.5t-326.5 135.5t-135.5 326.5t135.5 326.5t326.5 135.5zM664 554v85h-285l-34 -265q44 6 77 6q155 0 155 -96q0 -48 -35.5 -70.5t-81.5 -22.5q-69 0 -123 29l-21 -79q62 -32 148 -32q100 0 159.5 51.5
t59.5 128.5q0 86 -58.5 127.5t-145.5 41.5q-23 0 -42 -3l15 99h212z" />
    <glyph glyph-name="Japan1.8291" 
d="M500 842q192 0 327 -136t135 -326q0 -191 -135.5 -326.5t-326.5 -135.5t-326.5 135.5t-135.5 326.5t135.5 326.5t326.5 135.5zM644 565v83q-31 2 -64 -2q-128 -5 -205 -86.5t-77 -225.5q0 -100 51.5 -162.5t144.5 -62.5q86 0 143 56t57 133q0 71 -48 116.5t-120 45.5
q-78 0 -120 -47h-2q15 71 70 112.5t145 41.5q9 0 25 -2zM499 186q-48 0 -71.5 37t-23.5 91q0 32 29.5 51.5t65.5 19.5q42 0 66 -26.5t24 -65.5q0 -44 -24 -75.5t-66 -31.5z" />
    <glyph glyph-name="Japan1.8292" 
d="M500 842q192 0 327 -136t135 -326q0 -191 -135.5 -326.5t-326.5 -135.5t-326.5 135.5t-135.5 326.5t135.5 326.5t326.5 135.5zM700 639h-369v-85h258v-2l-232 -436h110l233 455v68z" />
    <glyph glyph-name="Japan1.8293" 
d="M500 842q192 0 327 -136t135 -326q0 -191 -135.5 -326.5t-326.5 -135.5t-326.5 135.5t-135.5 326.5t135.5 326.5t326.5 135.5zM594 396v2q83 38 83 118q0 54 -44.5 93.5t-128.5 39.5q-81 0 -132.5 -41t-51.5 -104q0 -79 82 -116v-2q-100 -39 -100 -132q0 -61 51.5 -103
t143.5 -42q89 0 145.5 43t56.5 114q0 47 -29 80.5t-76 49.5zM502 578q41 0 60 -22.5t19 -50.5q0 -29 -19.5 -49.5t-48.5 -27.5q-92 21 -92 80q0 29 21.5 49.5t59.5 20.5zM500 181q-41 0 -66.5 25t-25.5 59q0 68 81 87q104 -23 104 -95q0 -30 -25.5 -53t-67.5 -23z" />
    <glyph glyph-name="Japan1.8294" 
d="M500 842q192 0 327 -136t135 -326q0 -191 -135.5 -326.5t-326.5 -135.5t-326.5 135.5t-135.5 326.5t135.5 326.5t326.5 135.5zM356 193v-83q31 -2 64 2q128 5 205 86.5t77 225.5q0 100 -51.5 162.5t-144.5 62.5q-86 0 -143 -56t-57 -133q0 -71 48 -116.5t120 -45.5
q78 0 120 47h2q-15 -71 -70 -112t-145 -41q-17 0 -25 1zM500 572q51 0 73.5 -38.5t22.5 -89.5q0 -32 -29.5 -51.5t-65.5 -19.5q-42 0 -66 26.5t-24 65.5q0 45 24.5 76t64.5 31z" />
    <glyph glyph-name="Japan1.8295" 
d="M493 -10h-59l-89 181q-84 171 -87 179h-1l-80 -178l-82 -182h-59l195 400l-178 379h58l95 -205l59 -131q3 6 22 51t35 79l94 206h59l-184 -377zM557 769h51v-779h-51v779zM713 769h50v-779h-50v779zM870 769h50v-779h-50v779z" />
    <glyph glyph-name="Japan1.8296" 
d="M440 -10h-57l-76 179q-61 139 -75 177h-2q-30 -84 -67 -176l-71 -180h-56l169 401l-154 378h55l81 -203q37 -90 50 -129h1q40 105 49 128l81 204h55l-160 -376zM467 769h51v-779h-51v779zM794 -10h-53l-192 779h55l102 -427l62 -271h1q14 81 53 271l88 427h54z" />
    <glyph glyph-name="Japan1.8297" 
d="M484 -10h-62l-84 180q-75 157 -84 178h-1l-76 -177l-80 -181h-60l188 400l-172 379h60l91 -205l56 -129h1q23 59 55 129l90 205h60l-179 -377zM770 -10h-56l-216 779h57l116 -427q51 -191 71 -277h1l64 277l99 427h57z" />
    <glyph glyph-name="Japan1.8298" 
d="M766 664q-21 0 -33.5 15.5t-12.5 34.5q0 20 14 35.5t34 15.5q19 0 32.5 -15t13.5 -36q0 -20 -13.5 -35t-34.5 -15zM178 551h62l98 -139l64 -94h4l65 98l95 135h60l-192 -269l208 -292h-63l-102 143l-77 111h-3l-75 -107l-106 -147h-63l215 290zM795 -10h-57v561h57v-561z
" />
    <glyph glyph-name="Japan1.8299" 
d="M667 666q-22 0 -35 15t-13 34q0 20 13.5 35t32.5 15t33 -15t14 -35q0 -19 -13 -34t-32 -15zM846 666q-22 0 -35 15t-13 34q0 20 13.5 35t32.5 15t33 -15t14 -35q0 -19 -13 -34t-32 -15zM124 551h63l93 -139l61 -94h3l62 98l90 135h60l-183 -269l199 -292h-64l-98 143
q-69 107 -71 111h-3l-71 -107l-102 -147h-61l205 290zM694 -10h-56v561h56v-561zM873 -10h-56v561h56v-561z" />
    <glyph glyph-name="Japan1.8300" 
d="M585 667q-20 0 -32.5 15.5t-12.5 33.5q0 20 12.5 34.5t30.5 14.5t31 -15t13 -34t-12.5 -34t-29.5 -15zM730 667q-20 0 -32.5 15.5t-12.5 33.5q0 20 12.5 34.5t30.5 14.5t31 -15t13 -34t-12.5 -34t-29.5 -15zM875 667q-20 0 -32.5 15.5t-12.5 33.5q0 20 12.5 34.5
t29.5 14.5q18 0 31.5 -15t13.5 -34t-12.5 -34t-29.5 -15zM89 551h61l87 -139q34 -55 57 -94h3l58 98l85 135h57l-172 -269l187 -292h-60l-92 143q-47 74 -68 110h-3l-66 -107l-96 -146h-59l194 290zM609 -10h-50v561h50v-561zM754 -10h-50v561h50v-561zM899 -10h-50v561h50
v-561z" />
    <glyph glyph-name="Japan1.8301" 
d="M503 667q-20 0 -32.5 15.5t-12.5 33.5q0 20 12.5 34.5t29.5 14.5q18 0 31.5 -15t13.5 -34t-12 -34t-30 -15zM55 551h58l74 -137q14 -26 48 -93h3l50 96l73 134h53l-149 -269l162 -292h-57l-78 140l-59 110h-2q-33 -64 -57 -106l-82 -144h-56l169 290zM527 -10h-50v561h50
v-561zM578 551h49l95 -329q30 -105 44 -157h2l45 157l100 329h51l-175 -561h-44z" />
    <glyph glyph-name="Japan1.8302" 
d="M79 551h63l85 -139q41 -68 55 -94h3l57 98l82 135h60l-170 -268l185 -293h-63l-90 143l-30 50t-36 61h-3q-11 -20 -65 -108l-93 -146h-61l191 290zM515 551h58l104 -327q29 -86 49 -157h2q12 41 50 157l111 327h54l-196 -561h-44z" />
    <glyph glyph-name="Japan1.9780" 
d="M215 388q-78 0 -127.5 55t-49.5 154q0 101 52 157t130 56q82 0 129.5 -53t47.5 -152q0 -103 -47 -160t-135 -57zM215 431q69 0 98.5 48t29.5 123q0 78 -31 121t-94 43q-56 0 -90.5 -44.5t-34.5 -119.5q0 -81 33 -126t89 -45zM804 810l-560 -860h-49l560 860h49zM614 -20
l15 40q54 -27 138 -27q79 0 110.5 23.5t31.5 53.5q0 82 -164 82h-47v42h48q55 -1 98 17.5t43 53.5q0 27 -26.5 45.5t-85.5 18.5q-67 0 -122 -32l-17 39q61 36 146 36q78 0 117.5 -30t39.5 -71q0 -34 -27 -60t-78 -36v-2q58 -2 93 -30t35 -73q0 -53 -51 -86.5t-149 -33.5
q-88 0 -148 30z" />
    <glyph glyph-name="Japan1.9781" 
d="M224 389v373h-2l-98 -45l-14 39l118 53h47v-420h-51zM804 810l-560 -860h-49l560 860h49zM614 -20l15 40q54 -27 138 -27q79 0 110.5 23.5t31.5 53.5q0 82 -164 82h-47v42h48q55 -1 98 17.5t43 53.5q0 27 -26.5 45.5t-85.5 18.5q-67 0 -122 -32l-17 39q61 36 146 36
q78 0 117.5 -30t39.5 -71q0 -34 -27 -60t-78 -36v-2q58 -2 93 -30t35 -73q0 -53 -51 -86.5t-149 -33.5q-88 0 -148 30z" />
    <glyph glyph-name="Japan1.9782" 
d="M376 396h-338v27l55 40q131 96 173.5 137t42.5 83q0 84 -101 84q-71 0 -119 -48l-25 35q59 56 152 56q72 0 109 -36t37 -82q0 -54 -42.5 -100.5t-158.5 -130.5l-29 -20v-2h244v-43zM804 810l-560 -860h-49l560 860h49zM614 -20l15 40q54 -27 138 -27q79 0 110.5 23.5
t31.5 53.5q0 82 -164 82h-47v42h48q55 -1 98 17.5t43 53.5q0 27 -26.5 45.5t-85.5 18.5q-67 0 -122 -32l-17 39q61 36 146 36q78 0 117.5 -30t39.5 -71q0 -34 -27 -60t-78 -36v-2q58 -2 93 -30t35 -73q0 -53 -51 -86.5t-149 -33.5q-88 0 -148 30z" />
    <glyph glyph-name="Japan1.9783" 
d="M885 -50h-52v115h-253v37l245 268h60v-263h77v-42h-77v-115zM640 107h193v156q0 33 3 61h-2l-95 -107l-99 -108v-2zM38 419l15 39q54 -27 137 -27q79 0 110.5 23.5t31.5 53.5q0 82 -164 82h-46v41h47q55 -1 98 17.5t43 53.5q0 28 -26.5 47t-85.5 19q-67 0 -122 -32
l-17 38q61 36 147 36q78 0 117 -30t39 -71q0 -35 -27 -61t-78 -35v-3q58 -2 93.5 -29.5t35.5 -73.5q0 -52 -51.5 -85t-149.5 -33q-89 0 -147 30zM804 810l-560 -860h-49l560 860h49z" />
    <glyph glyph-name="Japan1.9784" 
d="M224 389v373h-2l-98 -45l-14 39l118 53h47v-420h-51zM804 810l-560 -860h-49l560 860h49zM956 364v-43h-214l-21 -108q12 3 51 3q76 0 133 -30.5t57 -97.5q0 -64 -50.5 -101t-138.5 -37q-86 0 -136 29l17 38q48 -24 120 -24q59 0 97 25t38 66q0 91 -158 91q-47 0 -85 -7
l35 196h255z" />
    <glyph glyph-name="Japan1.9785" 
d="M376 396h-338v27l55 40q131 96 173.5 137t42.5 83q0 84 -101 84q-71 0 -119 -48l-25 35q59 56 152 56q72 0 109 -36t37 -82q0 -54 -42.5 -100.5t-158.5 -130.5l-29 -20v-2h244v-43zM804 810l-560 -860h-49l560 860h49zM956 364v-43h-214l-21 -108q12 3 51 3
q76 0 133 -30.5t57 -97.5q0 -64 -50.5 -101t-138.5 -37q-86 0 -136 29l17 38q48 -24 120 -24q59 0 97 25t38 66q0 91 -158 91q-47 0 -85 -7l35 196h255z" />
    <glyph glyph-name="Japan1.9786" 
d="M38 419l16 41q64 -26 136 -26q78 0 108.5 23t30.5 52q0 80 -161 80h-47v43h48q55 0 96.5 17.5t41.5 51.5q0 27 -26 45.5t-83 18.5q-65 0 -119 -30l-20 39q58 36 147 36q78 0 117 -30t39 -71q0 -35 -27 -61t-78 -35v-2q58 -3 93.5 -30.5t35.5 -73.5q0 -52 -51.5 -85
t-149.5 -33q-89 0 -147 30zM804 810l-560 -860h-49l560 860h49zM956 364v-43h-214l-21 -108q12 3 51 3q76 0 133 -30.5t57 -97.5q0 -64 -50.5 -101t-138.5 -37q-86 0 -136 29l17 38q48 -24 120 -24q59 0 97 25t38 66q0 91 -158 91q-47 0 -85 -7l35 196h255z" />
    <glyph glyph-name="Japan1.9787" 
d="M342 388h-51v115h-253v36l244 269h60v-264h78v-41h-78v-115zM97 544h194v157q0 33 3 61h-2l-96 -108l-99 -107v-3zM804 810l-560 -860h-49l560 860h49zM956 364v-43h-214l-21 -108q12 3 51 3q76 0 133 -30.5t57 -97.5q0 -64 -50.5 -101t-138.5 -37q-86 0 -136 29l17 38
q48 -24 120 -24q59 0 97 25t38 66q0 91 -158 91q-47 0 -85 -7l35 196h255z" />
    <glyph glyph-name="Japan1.9788" 
d="M907 371v-42q-64 0 -113.5 -15t-77 -39t-42.5 -49.5t-18 -51.5h1q48 54 139 54q74 0 120 -36t46 -99q0 -61 -48 -102t-130 -41q-81 0 -131.5 46t-50.5 129q0 101 78 173.5t227 72.5zM788 -8q58 0 90 27t32 72q0 48 -34 72t-93 24q-53 0 -91 -27t-38 -49q0 -52 35 -85.5
t99 -33.5zM224 389v373h-2l-98 -45l-14 39l118 53h47v-420h-51zM804 810l-560 -860h-49l560 860h49z" />
    <glyph glyph-name="Japan1.9789" 
d="M907 371v-42q-64 0 -113.5 -15t-77 -39t-42.5 -49.5t-18 -51.5h1q48 54 139 54q74 0 120 -36t46 -99q0 -61 -48 -102t-130 -41q-81 0 -131.5 46t-50.5 129q0 101 78 173.5t227 72.5zM788 -8q58 0 90 27t32 72q0 48 -34 72t-93 24q-53 0 -91 -27t-38 -49q0 -52 35 -85.5
t99 -33.5zM804 810l-560 -860h-49l560 860h49zM356 802v-43h-214l-21 -109q17 4 51 4q27 0 55.5 -5t61 -17.5t53.5 -40t21 -66.5q0 -64 -51 -101t-139 -37q-87 0 -135 29l17 39q46 -25 119 -25q60 0 98 25t38 66q0 92 -159 92q-39 0 -85 -8l36 197h254z" />
    <glyph glyph-name="Japan1.9790" 
d="M224 389v373h-2l-98 -45l-14 39l118 53h47v-420h-51zM804 810l-560 -860h-49l560 860h49zM623 364h339v-34l-221 -380h-60l220 369v2h-278v43z" />
    <glyph glyph-name="Japan1.9791" 
d="M376 396h-338v27l55 40q131 96 173.5 137t42.5 83q0 84 -101 84q-71 0 -119 -48l-25 35q59 56 152 56q72 0 109 -36t37 -82q0 -54 -42.5 -100.5t-158.5 -130.5l-29 -20v-2h244v-43zM804 810l-560 -860h-49l560 860h49zM623 364h339v-34l-221 -380h-60l220 369v2h-278v43z
" />
    <glyph glyph-name="Japan1.9792" 
d="M38 419l15 39q54 -27 137 -27q79 0 110.5 23.5t31.5 53.5q0 82 -164 82h-46v41h47q55 -1 98 17.5t43 53.5q0 28 -26.5 47t-85.5 19q-67 0 -122 -32l-17 38q61 36 147 36q78 0 117 -30t39 -71q0 -35 -27 -61t-78 -35v-3q58 -2 93.5 -29.5t35.5 -73.5q0 -52 -51.5 -85
t-149.5 -33q-89 0 -147 30zM804 810l-560 -860h-49l560 860h49zM623 364h339v-34l-221 -380h-60l220 369v2h-278v43z" />
    <glyph glyph-name="Japan1.9793" 
d="M342 388h-51v115h-253v36l244 269h60v-264h78v-41h-78v-115zM97 544h194v157q0 33 3 61h-2l-96 -108l-99 -107v-3zM804 810l-560 -860h-49l560 860h49zM623 364h339v-34l-221 -380h-60l220 369v2h-278v43z" />
    <glyph glyph-name="Japan1.9794" 
d="M804 810l-560 -860h-49l560 860h49zM356 802v-43h-214l-21 -109q17 4 51 4q27 0 55.5 -5t61 -17.5t53.5 -40t21 -66.5q0 -64 -51 -101t-139 -37q-87 0 -135 29l17 39q46 -25 119 -25q60 0 98 25t38 66q0 92 -159 92q-39 0 -85 -8l36 197h254zM623 364h339v-34l-221 -380
h-60l220 369v2h-278v43z" />
    <glyph glyph-name="Japan1.9795" 
d="M342 810v-43q-120 0 -181.5 -47.5t-69.5 -107.5h1q50 54 139 54q74 0 120.5 -36t46.5 -99q0 -61 -48.5 -102t-130.5 -41q-81 0 -131 46t-50 129q0 117 90 185q79 62 214 62zM224 430q57 0 89 27t32 72q0 48 -34 72t-93 24q-52 0 -90.5 -26t-38.5 -49q0 -53 35 -86.5
t100 -33.5zM804 810l-560 -860h-49l560 860h49zM623 364h339v-34l-221 -380h-60l220 369v2h-278v43z" />
    <glyph glyph-name="Japan1.9796" 
d="M704 171v2q-91 23 -91 92q0 47 48 76.5t121 29.5q76 0 117.5 -29t41.5 -70q0 -31 -21 -59t-73 -39v-2q56 -10 85.5 -38t29.5 -66q0 -53 -54 -85.5t-132 -32.5q-81 0 -132.5 31t-51.5 79q0 38 28.5 67.5t83.5 43.5zM781 331q-59 0 -89 -18.5t-30 -45.5q0 -59 127 -75
q103 14 103 76q0 25 -27 44t-84 19zM776 -9q63 0 98 20.5t35 49.5q0 71 -145 89q-57 -8 -88 -31t-31 -54t35.5 -52.5t95.5 -21.5zM224 389v373h-2l-98 -45l-14 39l118 53h47v-420h-51zM804 810l-560 -860h-49l560 860h49z" />
    <glyph glyph-name="Japan1.9797" 
d="M704 171v2q-91 23 -91 92q0 47 48 76.5t121 29.5q76 0 117.5 -29t41.5 -70q0 -31 -21 -59t-73 -39v-2q56 -10 85.5 -38t29.5 -66q0 -53 -54 -85.5t-132 -32.5q-81 0 -132.5 31t-51.5 79q0 38 28.5 67.5t83.5 43.5zM781 331q-59 0 -89 -18.5t-30 -45.5q0 -59 127 -75
q103 14 103 76q0 25 -27 44t-84 19zM776 -9q63 0 98 20.5t35 49.5q0 71 -145 89q-57 -8 -88 -31t-31 -54t35.5 -52.5t95.5 -21.5zM38 419l15 39q54 -27 137 -27q79 0 110.5 23.5t31.5 53.5q0 82 -164 82h-46v41h47q55 -1 98 17.5t43 53.5q0 28 -26.5 47t-85.5 19
q-67 0 -122 -32l-17 38q61 36 147 36q78 0 117 -30t39 -71q0 -35 -27 -61t-78 -35v-3q58 -2 93.5 -29.5t35.5 -73.5q0 -52 -51.5 -85t-149.5 -33q-89 0 -147 30zM804 810l-560 -860h-49l560 860h49z" />
    <glyph glyph-name="Japan1.9798" 
d="M704 171v2q-91 23 -91 92q0 47 48 76.5t121 29.5q76 0 117.5 -29t41.5 -70q0 -31 -21 -59t-73 -39v-2q56 -10 85.5 -38t29.5 -66q0 -53 -54 -85.5t-132 -32.5q-81 0 -132.5 31t-51.5 79q0 38 28.5 67.5t83.5 43.5zM781 331q-59 0 -89 -18.5t-30 -45.5q0 -59 127 -75
q103 14 103 76q0 25 -27 44t-84 19zM776 -9q63 0 98 20.5t35 49.5q0 71 -145 89q-57 -8 -88 -31t-31 -54t35.5 -52.5t95.5 -21.5zM804 810l-560 -860h-49l560 860h49zM356 803v-43h-214l-21 -109q17 4 51 4q27 0 55.5 -5t61 -17.5t53.5 -40t21 -66.5q0 -64 -51 -100.5
t-139 -36.5q-89 0 -135 28l17 39q46 -25 119 -25q60 0 98 25t38 66q0 92 -159 92q-39 0 -85 -8l36 197h254z" />
    <glyph glyph-name="Japan1.9799" 
d="M704 171v2q-91 23 -91 92q0 47 48 76.5t121 29.5q76 0 117.5 -29t41.5 -70q0 -31 -21 -59t-73 -39v-2q56 -10 85.5 -38t29.5 -66q0 -53 -54 -85.5t-132 -32.5q-81 0 -132.5 31t-51.5 79q0 38 28.5 67.5t83.5 43.5zM781 331q-59 0 -89 -18.5t-30 -45.5q0 -59 127 -75
q103 14 103 76q0 25 -27 44t-84 19zM776 -9q63 0 98 20.5t35 49.5q0 71 -145 89q-57 -8 -88 -31t-31 -54t35.5 -52.5t95.5 -21.5zM804 810l-560 -860h-49l560 860h49zM38 803h339v-34l-221 -380h-60l220 369v2h-278v43z" />
    <glyph glyph-name="Japan1.9800" 
d="M658 -50v43q46 -3 98 10t98.5 50.5t54.5 94.5h-1q-48 -54 -139 -54q-74 0 -120 36t-46 99q0 60 48 101t130 41q81 0 131 -45.5t50 -129.5q0 -105 -79.5 -175.5t-224.5 -70.5zM776 330q-57 0 -89 -27.5t-32 -72.5q0 -48 34 -72t93 -24q53 0 91 27t38 49q0 53 -35 86.5
t-100 33.5zM224 389v374h-2l-98 -45l-14 39l118 53h47v-421h-51zM804 810l-560 -860h-49l560 860h49z" />
    <glyph glyph-name="Japan1.9801" 
d="M658 -50v43q46 -3 98 10t98.5 50.5t54.5 94.5h-1q-48 -54 -139 -54q-74 0 -120 36t-46 99q0 60 48 101t130 41q81 0 131 -45.5t50 -129.5q0 -105 -79.5 -175.5t-224.5 -70.5zM776 330q-57 0 -89 -27.5t-32 -72.5q0 -48 34 -72t93 -24q53 0 91 27t38 49q0 53 -35 86.5
t-100 33.5zM376 396h-338v27l55 40q131 96 173.5 137t42.5 83q0 84 -101 84q-71 0 -119 -48l-25 35q59 56 152 56q72 0 109 -36t37 -82q0 -54 -42.5 -100.5t-158.5 -130.5l-29 -20v-2h244v-43zM804 810l-560 -860h-49l560 860h49z" />
    <glyph glyph-name="Japan1.9802" 
d="M342 388h-51v115h-253v36l244 269h60v-264h78v-41h-78v-115zM97 544h194v157q0 33 3 61h-2l-96 -108l-99 -107v-3zM658 -50v43q46 -3 98 10t98.5 50.5t54.5 94.5h-1q-48 -54 -139 -54q-74 0 -120 36t-46 99q0 60 48 101t130 41q81 0 131 -45.5t50 -129.5
q0 -105 -79.5 -175.5t-224.5 -70.5zM776 330q-57 0 -89 -27.5t-32 -72.5q0 -48 34 -72t93 -24q53 0 91 27t38 49q0 53 -35 86.5t-100 33.5zM804 810l-560 -860h-49l560 860h49z" />
    <glyph glyph-name="Japan1.9803" 
d="M658 -50v43q46 -3 98 10t98.5 50.5t54.5 94.5h-1q-48 -54 -139 -54q-74 0 -120 36t-46 99q0 60 48 101t130 41q81 0 131 -45.5t50 -129.5q0 -105 -79.5 -175.5t-224.5 -70.5zM776 330q-57 0 -89 -27.5t-32 -72.5q0 -48 34 -72t93 -24q53 0 91 27t38 49q0 53 -35 86.5
t-100 33.5zM804 810l-560 -860h-49l560 860h49zM356 802v-43h-214l-21 -109q17 4 51 4q27 0 55.5 -5t61 -17.5t53.5 -40t21 -66.5q0 -64 -51 -101t-139 -37q-87 0 -135 29l17 39q46 -25 119 -25q60 0 98 25t38 66q0 92 -159 92q-39 0 -85 -8l36 197h254z" />
    <glyph glyph-name="Japan1.9804" 
d="M658 -50v43q46 -3 98 10t98.5 50.5t54.5 94.5h-1q-48 -54 -139 -54q-74 0 -120 36t-46 99q0 60 48 101t130 41q81 0 131 -45.5t50 -129.5q0 -105 -79.5 -175.5t-224.5 -70.5zM776 330q-57 0 -89 -27.5t-32 -72.5q0 -48 34 -72t93 -24q53 0 91 27t38 49q0 53 -35 86.5
t-100 33.5zM804 810l-560 -860h-49l560 860h49zM38 803h339v-34l-221 -380h-60l220 369v2h-278v43z" />
    <glyph glyph-name="Japan1.9805" 
d="M150 609v2q-91 24 -91 93q0 46 48 76t121 30q75 0 117 -29t42 -70q0 -78 -94 -99v-2q57 -10 86 -38t29 -66q0 -53 -54 -85t-132 -32q-81 0 -132.5 31t-51.5 79q0 37 29 67t83 43zM227 770q-58 0 -88.5 -19t-30.5 -45q0 -59 127 -75q48 6 75.5 25.5t27.5 49.5
q0 25 -27.5 44.5t-83.5 19.5zM222 429q63 0 98 20.5t35 49.5q0 72 -145 89q-56 -7 -87.5 -30.5t-31.5 -53.5q0 -32 35.5 -53.5t95.5 -21.5zM658 -50v43q46 -3 98 10t98.5 50.5t54.5 94.5h-1q-48 -54 -139 -54q-74 0 -120 36t-46 99q0 60 48 101t130 41q81 0 131 -45.5
t50 -129.5q0 -105 -79.5 -175.5t-224.5 -70.5zM776 330q-57 0 -89 -27.5t-32 -72.5q0 -48 34 -72t93 -24q53 0 91 27t38 49q0 53 -35 86.5t-100 33.5zM804 810l-560 -860h-49l560 860h49z" />
    <glyph glyph-name="Japan1.9806" 
d="M812 -50q-63 0 -103.5 53.5t-41.5 155.5q0 103 42 157.5t108 54.5q68 0 106.5 -52t38.5 -152q0 -106 -38 -161.5t-112 -55.5zM812 -9h1q101 0 101 172q0 168 -99 168q-45 0 -72.5 -45t-27.5 -123q0 -82 26.5 -127t70.5 -45zM736 810l-560 -860h-49l560 860h49zM200 389
v373h-2l-97 -45l-13 39l115 53h46v-420h-49zM553 -50v371h-2l-63 -32l-12 42l81 40h44v-421h-48z" />
    <glyph glyph-name="Japan1.9807" 
d="M812 -50q-63 0 -103.5 53.5t-41.5 155.5q0 103 42 157.5t108 54.5q68 0 106.5 -52t38.5 -152q0 -106 -38 -161.5t-112 -55.5zM812 -9h1q101 0 101 172q0 168 -99 168q-45 0 -72.5 -45t-27.5 -123q0 -82 26.5 -127t70.5 -45zM235 613v-3q53 -2 84.5 -29.5t31.5 -73.5
q0 -52 -46 -85t-134 -33q-80 0 -133 30l16 38q49 -26 121 -26q70 0 97.5 23.5t27.5 53.5q0 82 -145 82h-42v41h44q48 -1 85.5 17.5t37.5 53.5q0 28 -23.5 47t-74.5 19q-58 0 -107 -31l-17 37q53 36 131 36q70 0 105.5 -30t35.5 -71q0 -35 -24.5 -61t-70.5 -35zM736 810
l-560 -860h-49l560 860h49zM553 -50v371h-2l-63 -32l-12 42l81 40h44v-421h-48z" />
    <glyph glyph-name="Japan1.9808" 
d="M812 -50q-63 0 -103.5 53.5t-41.5 155.5q0 103 42 157.5t108 54.5q68 0 106.5 -52t38.5 -152q0 -106 -38 -161.5t-112 -55.5zM812 -9h1q101 0 101 172q0 168 -99 168q-45 0 -72.5 -45t-27.5 -123q0 -82 26.5 -127t70.5 -45zM736 810l-560 -860h-49l560 860h49zM38 803
h308v-34l-200 -380h-56l198 369v2h-250v43zM553 -50v371h-2l-63 -32l-12 42l81 40h44v-421h-48z" />
    <glyph glyph-name="Japan1.9809" 
d="M310 586h-2q-44 -54 -123 -54q-65 0 -106 36t-41 99q0 61 43.5 102t117.5 41q72 0 117.5 -46t45.5 -129q0 -103 -70.5 -174.5t-203.5 -71.5v42q107 0 161 47.5t61 107.5zM194 768q-51 0 -78.5 -27t-27.5 -72q0 -48 30 -72t82 -24q44 0 78.5 27t34.5 49q0 52 -31.5 85.5
t-87.5 33.5zM812 -50q-63 0 -103.5 53.5t-41.5 155.5q0 103 42 157.5t108 54.5q68 0 106.5 -52t38.5 -152q0 -106 -38 -161.5t-112 -55.5zM812 -9h1q101 0 101 172q0 168 -99 168q-45 0 -72.5 -45t-27.5 -123q0 -82 26.5 -127t70.5 -45zM736 810l-560 -860h-49l560 860h49z
M553 -50v371h-2l-63 -32l-12 42l81 40h44v-421h-48z" />
    <glyph glyph-name="Japan1.9810" 
d="M200 389v374h-2l-97 -45l-13 39l115 53h46v-421h-49zM736 810l-560 -860h-49l560 860h49zM584 -50v371h-2l-63 -32l-12 42l81 40h44v-421h-48zM881 -50v371h-2l-63 -32l-13 42l82 40h44v-421h-48z" />
    <glyph glyph-name="Japan1.9811" 
d="M341 396h-303v27l50 40q115 94 153 135.5t38 84.5q0 37 -21 60.5t-69 23.5q-63 0 -105 -48l-23 35q53 56 137 56q65 0 98 -36t33 -82q0 -54 -37 -99t-141 -132l-26 -20v-2h216v-43zM738 810l-560 -860h-49l560 860h49zM584 -50v371h-2l-63 -32l-12 42l81 40h44v-421h-48z
M881 -50v371h-2l-63 -32l-13 42l82 40h44v-421h-48z" />
    <glyph glyph-name="Japan1.9812" 
d="M38 419l16 38q49 -26 121 -26q70 0 97.5 23.5t27.5 53.5q0 82 -145 82h-42v41h44q48 -1 85.5 17.5t37.5 53.5q0 28 -23.5 47t-74.5 19q-58 0 -107 -31l-17 37q53 36 131 36q70 0 105.5 -30t35.5 -71q0 -35 -24.5 -61t-70.5 -35v-3q53 -2 84.5 -29.5t31.5 -73.5
q0 -52 -46 -85t-134 -33q-80 0 -133 30zM736 810l-560 -860h-49l560 860h49zM584 -50v371h-2l-63 -32l-12 42l81 40h44v-421h-48zM881 -50v371h-2l-63 -32l-13 42l82 40h44v-421h-48z" />
    <glyph glyph-name="Japan1.9813" 
d="M311 389l-49 -1v115h-224v37l220 269h53v-265h71v-41h-71v-114zM93 544h169v157q0 27 3 56h-1l-81 -102l-90 -108v-3zM738 810l-560 -860h-50l561 860h49zM584 -50v371h-2l-63 -32l-12 42l81 40h44v-421h-48zM881 -50v371h-2l-63 -32l-13 42l82 40h44v-421h-48z" />
    <glyph glyph-name="Japan1.9814" 
d="M736 810l-560 -860h-49l560 860h49zM325 803v-43h-194l-18 -109q15 4 45 4q28 0 55.5 -6t55.5 -19.5t45 -40.5t17 -63q0 -64 -46 -100.5t-126 -36.5q-79 0 -121 28l15 39q42 -25 108 -25q52 0 85.5 25t33.5 66q0 92 -140 92q-35 0 -77 -8l32 197h230zM584 -50v371h-2
l-63 -32l-12 42l81 40h44v-421h-48zM881 -50v371h-2l-63 -32l-13 42l82 40h44v-421h-48z" />
    <glyph glyph-name="Japan1.9815" 
d="M311 810v-43q-28 2 -62 -5t-69 -23.5t-60.5 -49.5t-30.5 -77h2q43 54 123 54q65 0 106.5 -36.5t41.5 -98.5q0 -60 -43.5 -101t-117.5 -41q-72 0 -117.5 45.5t-45.5 129.5q0 106 72 176t201 70zM205 430q50 0 78 27.5t28 72.5q0 48 -30 72t-82 24q-45 0 -78.5 -27
t-33.5 -49q0 -53 31 -86.5t87 -33.5zM736 810l-560 -860h-49l560 860h49zM584 -50v371h-2l-63 -32l-12 42l81 40h44v-421h-48zM881 -50v371h-2l-63 -32l-13 42l82 40h44v-421h-48z" />
    <glyph glyph-name="Japan1.9816" 
d="M736 810l-560 -860h-49l560 860h49zM38 803h308v-34l-200 -380h-56l198 369v2h-250v43zM584 -50v371h-2l-63 -32l-12 42l81 40h44v-421h-48zM881 -50v371h-2l-63 -32l-13 42l82 40h44v-421h-48z" />
    <glyph glyph-name="Japan1.9817" 
d="M139 609v2q-82 24 -82 93q0 46 43 76t109 30q68 0 105.5 -29t37.5 -70q0 -78 -84 -99v-2q51 -10 77 -38t26 -66q0 -52 -48.5 -84.5t-118.5 -32.5q-73 0 -119.5 31t-46.5 79q0 38 26 67.5t75 42.5zM208 770q-50 0 -77 -19t-27 -45q0 -59 111 -75q42 6 66 25.5t24 49.5
q0 25 -24 44.5t-73 19.5zM204 429q54 0 85 20.5t31 49.5q0 72 -127 89q-49 -7 -76.5 -30.5t-27.5 -53.5q0 -32 31 -53.5t84 -21.5zM737 810l-560 -860h-50l561 860h49zM584 -50v371h-2l-63 -32l-12 42l81 40h44v-421h-48zM881 -50v371h-2l-63 -32l-13 42l82 40h44v-421h-48z
" />
    <glyph glyph-name="Japan1.9818" 
d="M88 389v42q107 0 161 47.5t61 107.5h-2q-44 -54 -123 -54q-65 0 -106 36t-41 99q0 61 43.5 102t117.5 41q72 0 117.5 -46t45.5 -129q0 -103 -70.5 -174.5t-203.5 -71.5zM194 768q-51 0 -78.5 -27t-27.5 -72q0 -48 30 -72t82 -24q44 0 78.5 27t34.5 49q0 52 -31.5 85.5
t-87.5 33.5zM736 810l-560 -860h-49l560 860h49zM584 -50v371h-2l-63 -32l-12 42l81 40h44v-421h-48zM881 -50v371h-2l-63 -32l-13 42l82 40h44v-421h-48z" />
    <glyph glyph-name="Japan1.9819" 
d="M341 389q-45 0 -75 35.5t-40.5 80t-10.5 92.5q0 103 37 158t93 55q59 0 92 -52t33 -153q0 -216 -129 -216zM342 429q80 0 80 172q0 168 -78 168q-36 0 -57.5 -45t-21.5 -123q0 -83 20.5 -127.5t56.5 -44.5zM114 389v370h-2l-62 -32l-13 43l81 40h44v-421h-48zM804 810
l-560 -860h-49l560 860h49zM634 -50v371h-2l-63 -32l-13 42l82 40h44v-421h-48zM884 -50v371h-2l-63 -32l-12 42l81 40h44v-421h-48z" />
    <glyph glyph-name="Japan1.9820" 
d="M200 389v373h-2l-97 -45l-13 39l115 53h46v-420h-49zM738 810l-560 -860h-49l560 860h49zM584 -50v371h-2l-63 -32l-12 42l81 40h44v-421h-48zM962 -50h-260v27l38 36q98 91 132 137t34 92q0 37 -17.5 61.5t-56.5 24.5q-44 0 -80 -46l-25 32q47 57 118 57q55 0 83 -36.5
t28 -83.5q0 -57 -32.5 -105t-118.5 -127l-24 -21v-1h181v-47z" />
    <glyph glyph-name="Japan1.9821" 
d="M738 810l-560 -860h-49l560 860h49zM325 803v-43h-194l-18 -109q15 4 45 4q28 0 55.5 -6t55.5 -19.5t45 -40.5t17 -63q0 -64 -46 -100.5t-126 -36.5q-79 0 -121 28l15 39q42 -25 108 -25q52 0 85.5 25t33.5 66q0 92 -140 92q-35 0 -77 -8l32 197h230zM584 -50v371h-2
l-63 -32l-12 42l81 40h44v-421h-48zM962 -50h-260v27l38 36q98 91 132 137t34 92q0 37 -17.5 61.5t-56.5 24.5q-44 0 -80 -46l-25 32q47 57 118 57q55 0 83 -36.5t28 -83.5q0 -57 -32.5 -105t-118.5 -127l-24 -21v-1h181v-47z" />
    <glyph glyph-name="Japan1.9822" 
d="M738 810l-560 -860h-49l560 860h49zM38 803h308v-34l-200 -380h-56l198 369v2h-250v43zM584 -50v371h-2l-63 -32l-12 42l81 40h44v-421h-48zM962 -50h-260v27l38 36q98 91 132 137t34 92q0 37 -17.5 61.5t-56.5 24.5q-44 0 -80 -46l-25 32q47 57 118 57q55 0 83 -36.5
t28 -83.5q0 -57 -32.5 -105t-118.5 -127l-24 -21v-1h181v-47z" />
    <glyph glyph-name="Japan1.9823" 
d="M115 389v371h-2l-63 -32l-12 42l81 40h44v-421h-48zM779 810l-560 -860h-49l560 860h49zM363 389v371h-2l-63 -32l-13 42l81 40h45v-421h-48zM595 -50v371h-2l-63 -32l-13 42l82 40h44v-421h-48zM962 -50h-253v29l36 36q95 88 128 135t33 92q0 37 -17 61.5t-55 24.5
q-42 0 -76 -43l-24 32q45 54 113 54q54 0 81.5 -36.5t27.5 -81.5q0 -57 -32 -106t-117 -128l-22 -21v-1h177v-47z" />
    <glyph glyph-name="Japan1.9824" 
d="M665 -50q-17 0 -30 7t-27 27.5t-21.5 64.5t-7.5 110q0 112 22 162t66 50q45 0 65 -48t20 -156q0 -114 -19.5 -165.5t-67.5 -51.5zM666 -9q23 0 33 38.5t10 133.5q0 90 -9 129t-34 39q-43 0 -43 -168q0 -93 9.5 -132.5t33.5 -39.5zM876 -50q-17 0 -30 7t-27 27.5
t-21.5 64.5t-7.5 110q0 212 88 212q45 0 65 -48t20 -156q0 -114 -19.5 -165.5t-67.5 -51.5zM877 -9q23 0 33 38.5t10 133.5q0 90 -9 129t-33 39q-44 0 -44 -168q0 -92 10 -132t33 -40zM665 810l-559 -860h-50l561 860h48zM167 389v374h-2l-89 -41l-13 39l107 49h44v-421h-47
zM489 -50v371h-2l-63 -32l-13 42l82 40h39v-421h-43z" />
    <glyph glyph-name="Japan1.9825" 
d="M498 461q-72 0 -118 49.5t-46 138.5q0 93 48 143t120 50q76 0 120 -47.5t44 -137.5q0 -94 -43.5 -145t-124.5 -51zM498 500q44 0 71.5 23.5t37 56t9.5 74.5q0 70 -28.5 109.5t-86.5 39.5q-52 0 -84.5 -40.5t-32.5 -108.5q0 -74 31 -114t83 -40zM942 398v-36h-884v36h884z
M338 -54l17 36q46 -24 124 -24q72 0 100.5 20.5t28.5 47.5q0 72 -148 72h-44v39h44q50 0 88.5 16.5t38.5 48.5q0 57 -100 57q-62 0 -112 -28l-17 36q58 32 136 32q72 0 108 -27t36 -65q0 -31 -25 -54.5t-72 -32.5v-2q53 -2 85.5 -27t32.5 -66q0 -48 -47 -77.5t-138 -29.5
q-88 0 -136 28z" />
    <glyph glyph-name="Japan1.9826" 
d="M489 461v340h-2l-91 -40l-12 34l108 47h46v-381h-49zM942 398v-36h-884v36h884zM656 -76h-312v23l51 37q135 103 162 131q35 36 35 69q0 32 -22 53t-71 21q-65 0 -108 -43l-24 33q55 51 141 51q66 0 100 -32.5t34 -73.5q0 -21 -5 -36.5t-23.5 -41t-62 -62t-114.5 -86.5
v-2h219v-41z" />
    <glyph glyph-name="Japan1.9827" 
d="M489 461v340h-2l-91 -40l-12 34l108 47h46v-381h-49zM942 398v-36h-884v36h884zM338 -54l17 36q46 -24 124 -24q72 0 100.5 20.5t28.5 47.5q0 72 -148 72h-44v39h44q50 0 88.5 16.5t38.5 48.5q0 57 -100 57q-62 0 -112 -28l-17 36q58 32 136 32q72 0 108 -27t36 -65
q0 -31 -25 -54.5t-72 -32.5v-2q53 -2 85.5 -27t32.5 -66q0 -48 -47 -77.5t-138 -29.5q-88 0 -136 28z" />
    <glyph glyph-name="Japan1.9828" 
d="M656 467h-312v23l51 38q134 102 160 128q37 37 37 71q0 75 -93 75q-64 0 -108 -44l-24 34q56 50 141 50q66 0 100 -32.5t34 -73.5q0 -16 -1.5 -25.5t-12 -29.5t-30.5 -40.5t-61 -54.5t-100 -76v-2h219v-41zM942 398v-36h-884v36h884zM338 -54l17 36q46 -24 124 -24
q72 0 100.5 20.5t28.5 47.5q0 72 -148 72h-44v39h44q50 0 88.5 16.5t38.5 48.5q0 57 -100 57q-62 0 -112 -28l-17 36q58 32 136 32q72 0 108 -27t36 -65q0 -31 -25 -54.5t-72 -32.5v-2q53 -2 85.5 -27t32.5 -66q0 -48 -47 -77.5t-138 -29.5q-88 0 -136 28z" />
    <glyph glyph-name="Japan1.9829" 
d="M602 -82h-49v100h-234v33l226 238h57v-232h72v-39h-72v-100zM380 57h173v126q0 38 3 62h-3q-6 -7 -85 -93l-88 -93v-2zM489 461v340h-2l-91 -40l-12 34l108 47h46v-381h-49zM942 398v-36h-884v36h884z" />
    <glyph glyph-name="Japan1.9830" 
d="M602 -82h-49v100h-234v33l226 238h57v-232h72v-39h-72v-100zM380 57h173v126q0 38 3 62h-3q-6 -7 -85 -93l-88 -93v-2zM344 489l17 36q46 -24 124 -24q71 0 100 21t29 47q0 73 -148 73h-44v39h44q50 -1 88.5 15.5t38.5 48.5q0 57 -100 57q-62 0 -112 -28l-17 36
q58 32 136 32q72 0 108 -27t36 -65q0 -31 -25 -54t-72 -32v-2q53 -2 85.5 -27t32.5 -66q0 -48 -47 -78t-138 -30q-84 0 -136 28zM942 398v-36h-884v36h884z" />
    <glyph glyph-name="Japan1.9831" 
d="M489 461v340h-2l-91 -40l-12 34l108 47h46v-381h-49zM942 398v-36h-884v36h884zM643 292v-41h-198l-19 -95q22 4 47 4q26 0 52.5 -4.5t56.5 -16t48.5 -37t18.5 -61.5q0 -58 -47 -90.5t-128 -32.5q-84 0 -125 26l16 36q40 -22 111 -22q53 0 87.5 22t34.5 59q0 81 -144 81
q-42 0 -79 -7l33 179h235z" />
    <glyph glyph-name="Japan1.9832" 
d="M656 467h-312v23l51 38q134 102 160 128q37 37 37 71q0 75 -93 75q-64 0 -108 -44l-24 34q56 50 141 50q66 0 100 -32.5t34 -73.5q0 -16 -1.5 -25.5t-12 -29.5t-30.5 -40.5t-61 -54.5t-100 -76v-2h219v-41zM942 398v-36h-884v36h884zM643 292v-41h-198l-19 -95q22 4 47 4
q26 0 52.5 -4.5t56.5 -16t48.5 -37t18.5 -61.5q0 -58 -47 -90.5t-128 -32.5q-84 0 -125 26l16 36q40 -22 111 -22q53 0 87.5 22t34.5 59q0 81 -144 81q-42 0 -79 -7l33 179h235z" />
    <glyph glyph-name="Japan1.9833" 
d="M344 489l17 36q46 -24 124 -24q71 0 100 21t29 47q0 73 -148 73h-44v39h44q50 -1 88.5 15.5t38.5 48.5q0 57 -100 57q-62 0 -112 -28l-17 36q58 32 136 32q72 0 108 -27t36 -65q0 -31 -25 -54t-72 -32v-2q53 -2 85.5 -27t32.5 -66q0 -48 -47 -78t-138 -30q-84 0 -136 28z
M942 398v-36h-884v36h884zM643 292v-41h-198l-19 -95q22 4 47 4q26 0 52.5 -4.5t56.5 -16t48.5 -37t18.5 -61.5q0 -58 -47 -90.5t-128 -32.5q-84 0 -125 26l16 36q40 -22 111 -22q53 0 87.5 22t34.5 59q0 81 -144 81q-42 0 -79 -7l33 179h235z" />
    <glyph glyph-name="Japan1.9834" 
d="M602 461h-49v100h-234v33l226 239h57v-233h72v-39h-72v-100zM380 600h173v126q0 38 3 63h-3q-11 -13 -85 -94l-88 -93v-2zM942 398v-36h-884v36h884zM643 292v-41h-198l-19 -95q22 4 47 4q26 0 52.5 -4.5t56.5 -16t48.5 -37t18.5 -61.5q0 -58 -47 -90.5t-128 -32.5
q-84 0 -125 26l16 36q40 -22 111 -22q53 0 87.5 22t34.5 59q0 81 -144 81q-42 0 -79 -7l33 179h235z" />
    <glyph glyph-name="Japan1.9835" 
d="M615 299v-40q-63 0 -109.5 -14.5t-70.5 -38t-35 -44.5t-14 -42h1q46 50 125 50q69 0 111.5 -33t42.5 -90q0 -55 -44.5 -92t-120.5 -37q-74 0 -120.5 41t-46.5 116q0 92 70.5 158t210.5 66zM505 -43q52 0 81.5 24.5t29.5 64.5q0 43 -31.5 64t-85.5 21q-46 0 -81 -23
t-35 -45q0 -46 32 -76t90 -30zM942 398v-36h-884v36h884zM489 461v340h-2l-91 -40l-12 34l108 47h46v-381h-49z" />
    <glyph glyph-name="Japan1.9836" 
d="M615 299v-40q-63 0 -109.5 -14.5t-70.5 -38t-35 -44.5t-14 -42h1q46 50 125 50q69 0 111.5 -33t42.5 -90q0 -55 -44.5 -92t-120.5 -37q-74 0 -120.5 41t-46.5 116q0 92 70.5 158t210.5 66zM505 -43q52 0 81.5 24.5t29.5 64.5q0 43 -31.5 64t-85.5 21q-46 0 -81 -23
t-35 -45q0 -46 32 -76t90 -30zM942 398v-36h-884v36h884zM643 835v-41h-198l-19 -95q22 4 47 4q27 0 54 -5t56.5 -17t47.5 -36.5t18 -59.5q0 -58 -47 -91t-128 -33q-84 0 -125 26l16 36q44 -22 111 -22q53 0 87.5 22.5t34.5 59.5q0 81 -144 81q-37 0 -79 -8l33 179h235z" />
    <glyph glyph-name="Japan1.9837" 
d="M489 461v340h-2l-91 -40l-12 34l108 47h46v-381h-49zM942 398v-36h-884v36h884zM343 292h314v-31l-202 -343h-58l200 332v1h-254v41z" />
    <glyph glyph-name="Japan1.9838" 
d="M656 467h-312v23l51 38q134 102 160 128q37 37 37 71q0 75 -93 75q-64 0 -108 -44l-24 34q56 50 141 50q66 0 100 -32.5t34 -73.5q0 -16 -1.5 -25.5t-12 -29.5t-30.5 -40.5t-61 -54.5t-100 -76v-2h219v-41zM942 398v-36h-884v36h884zM343 292h314v-31l-202 -343h-58
l200 332v1h-254v41z" />
    <glyph glyph-name="Japan1.9839" 
d="M344 489l17 36q46 -24 124 -24q71 0 100 21t29 47q0 73 -148 73h-44v39h44q50 -1 88.5 15.5t38.5 48.5q0 57 -100 57q-62 0 -112 -28l-17 36q58 32 136 32q72 0 108 -27t36 -65q0 -31 -25 -54t-72 -32v-2q53 -2 85.5 -27t32.5 -66q0 -48 -47 -78t-138 -30q-84 0 -136 28z
M942 398v-36h-884v36h884zM343 292h314v-31l-202 -343h-58l200 332v1h-254v41z" />
    <glyph glyph-name="Japan1.9840" 
d="M602 461h-49v100h-234v33l226 239h57v-233h72v-39h-72v-100zM380 600h173v126q0 38 3 63h-3q-11 -13 -85 -94l-88 -93v-2zM942 398v-36h-884v36h884zM343 292h314v-31l-202 -343h-58l200 332v1h-254v41z" />
    <glyph glyph-name="Japan1.9841" 
d="M643 835v-41h-198l-19 -95q22 4 47 4q27 0 54 -5t56.5 -17t47.5 -36.5t18 -59.5q0 -58 -47 -91t-128 -33q-84 0 -125 26l16 36q44 -22 111 -22q53 0 87.5 22.5t34.5 59.5q0 81 -144 81q-37 0 -79 -8l33 179h235zM942 398v-36h-884v36h884zM343 292h314v-31l-202 -343h-58
l200 332v1h-254v41z" />
    <glyph glyph-name="Japan1.9842" 
d="M615 842v-40q-62 0 -108.5 -14.5t-70.5 -37.5t-35.5 -44.5t-14.5 -41.5h1q45 49 125 49q69 0 111.5 -33t42.5 -90q0 -55 -44.5 -92t-120.5 -37q-74 0 -120.5 41t-46.5 117q0 91 70 157t211 66zM505 500q52 0 81.5 24.5t29.5 64.5q0 43 -31.5 64.5t-85.5 21.5
q-45 0 -80.5 -23.5t-35.5 -45.5q0 -46 32 -76t90 -30zM942 398v-36h-884v36h884zM343 292h314v-31l-202 -343h-58l200 332v1h-254v41z" />
    <glyph glyph-name="Japan1.9843" 
d="M433 118v1q-85 21 -85 84q0 42 44.5 69t112.5 27q70 0 108.5 -26t38.5 -64q0 -28 -19.5 -53.5t-67.5 -34.5v-2q52 -9 79 -35t27 -60q0 -48 -50 -77t-122 -29q-74 0 -122 28t-48 72q0 33 27 60t77 40zM504 261q-53 0 -80.5 -16.5t-27.5 -39.5q0 -29 28.5 -44t86.5 -23
q94 13 94 67q0 22 -25 39t-76 17zM499 -44q57 0 89 18t32 44q0 64 -132 79q-51 -7 -79 -27t-28 -48t32 -47t86 -19zM489 461v340h-2l-91 -40l-12 34l108 47h46v-381h-49zM942 398v-36h-884v36h884z" />
    <glyph glyph-name="Japan1.9844" 
d="M433 118v1q-85 21 -85 84q0 42 44.5 69t112.5 27q70 0 108.5 -26t38.5 -64q0 -28 -19.5 -53.5t-67.5 -34.5v-2q52 -9 79 -35t27 -60q0 -48 -50 -77t-122 -29q-74 0 -122 28t-48 72q0 33 27 60t77 40zM504 261q-53 0 -80.5 -16.5t-27.5 -39.5q0 -29 28.5 -44t86.5 -23
q94 13 94 67q0 22 -25 39t-76 17zM499 -44q57 0 89 18t32 44q0 64 -132 79q-51 -7 -79 -27t-28 -48t32 -47t86 -19zM344 489l17 36q46 -24 124 -24q71 0 100 21t29 47q0 73 -148 73h-44v39h44q50 -1 88.5 15.5t38.5 48.5q0 57 -100 57q-62 0 -112 -28l-17 36q58 32 136 32
q72 0 108 -27t36 -65q0 -31 -25 -54t-72 -32v-2q53 -2 85.5 -27t32.5 -66q0 -48 -47 -78t-138 -30q-84 0 -136 28zM942 398v-36h-884v36h884z" />
    <glyph glyph-name="Japan1.9845" 
d="M433 118v1q-85 21 -85 84q0 42 44.5 69t112.5 27q70 0 108.5 -26t38.5 -64q0 -28 -19.5 -53.5t-67.5 -34.5v-2q52 -9 79 -35t27 -60q0 -48 -50 -77t-122 -29q-74 0 -122 28t-48 72q0 33 27 60t77 40zM504 261q-53 0 -80.5 -16.5t-27.5 -39.5q0 -29 28.5 -44t86.5 -23
q94 13 94 67q0 22 -25 39t-76 17zM499 -44q57 0 89 18t32 44q0 64 -132 79q-51 -7 -79 -27t-28 -48t32 -47t86 -19zM643 835v-41h-198l-19 -95q22 4 47 4q27 0 54 -5t56.5 -17t47.5 -36.5t18 -59.5q0 -58 -47 -91t-128 -33q-84 0 -125 26l16 36q44 -22 111 -22
q53 0 87.5 22.5t34.5 59.5q0 81 -144 81q-37 0 -79 -8l33 179h235zM942 398v-36h-884v36h884z" />
    <glyph glyph-name="Japan1.9846" 
d="M433 118v1q-85 21 -85 84q0 42 44.5 69t112.5 27q70 0 108.5 -26t38.5 -64q0 -28 -19.5 -53.5t-67.5 -34.5v-2q52 -9 79 -35t27 -60q0 -48 -50 -77t-122 -29q-74 0 -122 28t-48 72q0 33 27 60t77 40zM504 261q-53 0 -80.5 -16.5t-27.5 -39.5q0 -29 28.5 -44t86.5 -23
q94 13 94 67q0 22 -25 39t-76 17zM499 -44q57 0 89 18t32 44q0 64 -132 79q-51 -7 -79 -27t-28 -48t32 -47t86 -19zM343 835h314v-31l-202 -343h-58l200 332v1h-254v41zM942 398v-36h-884v36h884z" />
    <glyph glyph-name="Japan1.9847" 
d="M385 -82v40q63 0 109.5 15t70.5 38.5t35 44t14 40.5h-1q-45 -49 -125 -49q-69 0 -111.5 33t-42.5 90q0 55 44.5 92t120.5 37q74 0 120.5 -41t46.5 -117q0 -91 -70 -157t-211 -66zM495 260q-53 0 -82 -24.5t-29 -64.5q0 -43 31.5 -64.5t84.5 -21.5q46 0 81.5 23.5
t35.5 45.5q0 46 -32 76t-90 30zM489 461v340h-2l-91 -40l-12 34l108 47h46v-381h-49zM942 398v-36h-884v36h884z" />
    <glyph glyph-name="Japan1.9848" 
d="M385 -82v40q63 0 109.5 15t70.5 38.5t35 44t14 40.5h-1q-45 -49 -125 -49q-69 0 -111.5 33t-42.5 90q0 55 44.5 92t120.5 37q74 0 120.5 -41t46.5 -117q0 -91 -70 -157t-211 -66zM495 260q-53 0 -82 -24.5t-29 -64.5q0 -43 31.5 -64.5t84.5 -21.5q46 0 81.5 23.5
t35.5 45.5q0 46 -32 76t-90 30zM656 467h-312v23l51 38q134 102 160 128q37 37 37 71q0 75 -93 75q-64 0 -108 -44l-24 34q56 50 141 50q66 0 100 -32.5t34 -73.5q0 -16 -1.5 -25.5t-12 -29.5t-30.5 -40.5t-61 -54.5t-100 -76v-2h219v-41zM942 398v-36h-884v36h884z" />
    <glyph glyph-name="Japan1.9849" 
d="M602 461h-49v100h-234v33l226 239h57v-233h72v-39h-72v-100zM380 600h173v126q0 38 3 63h-3q-11 -13 -85 -94l-88 -93v-2zM385 -82v40q63 0 109.5 15t70.5 38.5t35 44t14 40.5h-1q-45 -49 -125 -49q-69 0 -111.5 33t-42.5 90q0 55 44.5 92t120.5 37q74 0 120.5 -41
t46.5 -117q0 -91 -70 -157t-211 -66zM495 260q-53 0 -82 -24.5t-29 -64.5q0 -43 31.5 -64.5t84.5 -21.5q46 0 81.5 23.5t35.5 45.5q0 46 -32 76t-90 30zM942 398v-36h-884v36h884z" />
    <glyph glyph-name="Japan1.9850" 
d="M385 -82v40q63 0 109.5 15t70.5 38.5t35 44t14 40.5h-1q-45 -49 -125 -49q-69 0 -111.5 33t-42.5 90q0 55 44.5 92t120.5 37q74 0 120.5 -41t46.5 -117q0 -91 -70 -157t-211 -66zM495 260q-53 0 -82 -24.5t-29 -64.5q0 -43 31.5 -64.5t84.5 -21.5q46 0 81.5 23.5
t35.5 45.5q0 46 -32 76t-90 30zM643 835v-41h-198l-19 -95q22 4 47 4q27 0 54 -5t56.5 -17t47.5 -36.5t18 -59.5q0 -58 -47 -91t-128 -33q-84 0 -125 26l16 36q44 -22 111 -22q53 0 87.5 22.5t34.5 59.5q0 81 -144 81q-37 0 -79 -8l33 179h235zM942 398v-36h-884v36h884z
" />
    <glyph glyph-name="Japan1.9851" 
d="M385 -82v40q63 0 109.5 15t70.5 38.5t35 44t14 40.5h-1q-45 -49 -125 -49q-69 0 -111.5 33t-42.5 90q0 55 44.5 92t120.5 37q74 0 120.5 -41t46.5 -117q0 -91 -70 -157t-211 -66zM495 260q-53 0 -82 -24.5t-29 -64.5q0 -43 31.5 -64.5t84.5 -21.5q46 0 81.5 23.5
t35.5 45.5q0 46 -32 76t-90 30zM343 835h314v-31l-202 -343h-58l200 332v1h-254v41zM942 398v-36h-884v36h884z" />
    <glyph glyph-name="Japan1.9852" 
d="M433 661v1q-85 22 -85 84q0 42 44.5 69t112.5 27q70 0 108.5 -26t38.5 -64q0 -28 -19.5 -53.5t-67.5 -34.5v-2q52 -9 79 -35t27 -60q0 -48 -50 -77t-122 -29q-74 0 -122 28t-48 72q0 33 27 60.5t77 39.5zM504 804q-53 0 -80.5 -16.5t-27.5 -39.5q0 -51 115 -67
q94 13 94 67q0 22 -25 39t-76 17zM499 500q58 0 89.5 17.5t31.5 43.5q0 65 -132 79q-50 -6 -78.5 -26.5t-28.5 -48.5t31.5 -46.5t86.5 -18.5zM385 -82v40q63 0 109.5 15t70.5 38.5t35 44t14 40.5h-1q-45 -49 -125 -49q-69 0 -111.5 33t-42.5 90q0 55 44.5 92t120.5 37
q74 0 120.5 -41t46.5 -117q0 -91 -70 -157t-211 -66zM495 260q-53 0 -82 -24.5t-29 -64.5q0 -43 31.5 -64.5t84.5 -21.5q46 0 81.5 23.5t35.5 45.5q0 46 -32 76t-90 30zM942 398v-36h-884v36h884z" />
    <glyph glyph-name="Japan1.9853" 
d="M599 -82q-72 0 -118 49.5t-46 138.5q0 92 48 142.5t120 50.5q76 0 119.5 -48t43.5 -137q0 -94 -43 -145t-124 -51zM599 -43q63 0 90.5 43.5t27.5 110.5q0 70 -28.5 109.5t-86.5 39.5q-52 0 -84.5 -40.5t-32.5 -108.5q0 -74 31 -114t83 -40zM489 461v340h-2l-91 -40
l-12 34l108 47h46v-381h-49zM942 398v-36h-884v36h884zM319 -82v340h-2l-91 -40l-12 34l108 47h45v-381h-48z" />
    <glyph glyph-name="Japan1.9854" 
d="M599 -82q-72 0 -118 49.5t-46 138.5q0 92 48 142.5t120 50.5q76 0 119.5 -48t43.5 -137q0 -94 -43 -145t-124 -51zM599 -43q63 0 90.5 43.5t27.5 110.5q0 70 -28.5 109.5t-86.5 39.5q-52 0 -84.5 -40.5t-32.5 -108.5q0 -74 31 -114t83 -40zM344 489l17 36q46 -24 124 -24
q71 0 100 21t29 47q0 73 -148 73h-44v39h44q50 -1 88.5 15.5t38.5 48.5q0 57 -100 57q-62 0 -112 -28l-17 36q58 32 136 32q72 0 108 -27t36 -65q0 -31 -25 -54t-72 -32v-2q53 -2 85.5 -27t32.5 -66q0 -48 -47 -78t-138 -30q-84 0 -136 28zM942 398v-36h-884v36h884z
M319 -82v340h-2l-91 -40l-12 34l108 47h45v-381h-48z" />
    <glyph glyph-name="Japan1.9855" 
d="M599 -82q-72 0 -118 49.5t-46 138.5q0 92 48 142.5t120 50.5q76 0 119.5 -48t43.5 -137q0 -94 -43 -145t-124 -51zM599 -43q63 0 90.5 43.5t27.5 110.5q0 70 -28.5 109.5t-86.5 39.5q-52 0 -84.5 -40.5t-32.5 -108.5q0 -74 31 -114t83 -40zM343 835h314v-31l-202 -343
h-58l200 332v1h-254v41zM942 398v-36h-884v36h884zM319 -82v340h-2l-91 -40l-12 34l108 47h45v-381h-48z" />
    <glyph glyph-name="Japan1.9856" 
d="M385 461v40q63 0 110 15t70.5 38.5t34.5 44.5t14 41h-1q-46 -50 -125 -50q-69 0 -111.5 33t-42.5 90q0 55 44.5 92t120.5 37q74 0 120.5 -41t46.5 -116q0 -92 -70.5 -158t-210.5 -66zM495 803q-53 0 -82 -24.5t-29 -64.5q0 -43 31.5 -64t84.5 -21q47 0 82 23t35 45
q0 46 -32 76t-90 30zM599 -82q-72 0 -118 49.5t-46 138.5q0 92 48 142.5t120 50.5q76 0 119.5 -48t43.5 -137q0 -94 -43 -145t-124 -51zM599 -43q63 0 90.5 43.5t27.5 110.5q0 70 -28.5 109.5t-86.5 39.5q-52 0 -84.5 -40.5t-32.5 -108.5q0 -74 31 -114t83 -40zM942 398v-36
h-884v36h884zM319 -82v340h-2l-91 -40l-12 34l108 47h45v-381h-48z" />
    <glyph glyph-name="Japan1.9857" 
d="M489 461v340h-2l-91 -40l-12 34l108 47h46v-381h-49zM942 398v-36h-884v36h884zM324 -82v340h-2l-90 -40l-12 34l108 47h45v-381h-49zM676 -82v340h-2l-90 -40l-13 34l109 47h45v-381h-49z" />
    <glyph glyph-name="Japan1.9858" 
d="M656 467h-312v23l51 38q134 102 160 128q37 37 37 71q0 75 -93 75q-64 0 -108 -44l-24 34q56 50 141 50q66 0 100 -32.5t34 -73.5q0 -16 -1.5 -25.5t-12 -29.5t-30.5 -40.5t-61 -54.5t-100 -76v-2h219v-41zM942 398v-36h-884v36h884zM324 -82v340h-2l-90 -40l-12 34
l108 47h45v-381h-49zM676 -82v340h-2l-90 -40l-13 34l109 47h45v-381h-49z" />
    <glyph glyph-name="Japan1.9859" 
d="M344 489l17 36q46 -24 124 -24q71 0 100 21t29 47q0 73 -148 73h-44v39h44q50 -1 88.5 15.5t38.5 48.5q0 57 -100 57q-62 0 -112 -28l-17 36q58 32 136 32q72 0 108 -27t36 -65q0 -31 -25 -54t-72 -32v-2q53 -2 85.5 -27t32.5 -66q0 -48 -47 -78t-138 -30q-84 0 -136 28z
M942 398v-36h-884v36h884zM324 -82v340h-2l-90 -40l-12 34l108 47h45v-381h-49zM676 -82v340h-2l-90 -40l-13 34l109 47h45v-381h-49z" />
    <glyph glyph-name="Japan1.9860" 
d="M602 461h-49v100h-234v33l226 239h57v-233h72v-39h-72v-100zM380 600h173v126q0 38 3 63h-3q-11 -13 -85 -94l-88 -93v-2zM942 398v-36h-884v36h884zM324 -82v340h-2l-90 -40l-12 34l108 47h45v-381h-49zM676 -82v340h-2l-90 -40l-13 34l109 47h45v-381h-49z" />
    <glyph glyph-name="Japan1.9861" 
d="M643 835v-41h-198l-19 -95q22 4 47 4q27 0 54 -5t56.5 -17t47.5 -36.5t18 -59.5q0 -58 -47 -91t-128 -33q-84 0 -125 26l16 36q44 -22 111 -22q53 0 87.5 22.5t34.5 59.5q0 81 -144 81q-37 0 -79 -8l33 179h235zM942 398v-36h-884v36h884zM324 -82v340h-2l-90 -40l-12 34
l108 47h45v-381h-49zM676 -82v340h-2l-90 -40l-13 34l109 47h45v-381h-49z" />
    <glyph glyph-name="Japan1.9862" 
d="M615 842v-40q-62 0 -108.5 -14.5t-70.5 -37.5t-35.5 -44.5t-14.5 -41.5h1q45 49 125 49q69 0 111.5 -33t42.5 -90q0 -55 -44.5 -92t-120.5 -37q-74 0 -120.5 41t-46.5 117q0 91 70 157t211 66zM505 500q52 0 81.5 24.5t29.5 64.5q0 43 -31.5 64.5t-85.5 21.5
q-45 0 -80.5 -23.5t-35.5 -45.5q0 -46 32 -76t90 -30zM942 398v-36h-884v36h884zM324 -82v340h-2l-90 -40l-12 34l108 47h45v-381h-49zM676 -82v340h-2l-90 -40l-13 34l109 47h45v-381h-49z" />
    <glyph glyph-name="Japan1.9863" 
d="M343 835h314v-31l-202 -343h-58l200 332v1h-254v41zM942 398v-36h-884v36h884zM324 -82v340h-2l-90 -40l-12 34l108 47h45v-381h-49zM676 -82v340h-2l-90 -40l-13 34l109 47h45v-381h-49z" />
    <glyph glyph-name="Japan1.9864" 
d="M433 661v1q-85 22 -85 84q0 42 44.5 69t112.5 27q70 0 108.5 -26t38.5 -64q0 -28 -19.5 -53.5t-67.5 -34.5v-2q52 -9 79 -35t27 -60q0 -48 -50 -77t-122 -29q-74 0 -122 28t-48 72q0 33 27 60.5t77 39.5zM504 804q-53 0 -80.5 -16.5t-27.5 -39.5q0 -51 115 -67
q94 13 94 67q0 22 -25 39t-76 17zM499 500q58 0 89.5 17.5t31.5 43.5q0 65 -132 79q-50 -6 -78.5 -26.5t-28.5 -48.5t31.5 -46.5t86.5 -18.5zM942 398v-36h-884v36h884zM324 -82v340h-2l-90 -40l-12 34l108 47h45v-381h-49zM676 -82v340h-2l-90 -40l-13 34l109 47h45v-381
h-49z" />
    <glyph glyph-name="Japan1.9865" 
d="M385 461v40q63 0 110 15t70.5 38.5t34.5 44.5t14 41h-1q-46 -50 -125 -50q-69 0 -111.5 33t-42.5 90q0 55 44.5 92t120.5 37q74 0 120.5 -41t46.5 -116q0 -92 -70.5 -158t-210.5 -66zM495 803q-53 0 -82 -24.5t-29 -64.5q0 -43 31.5 -64t84.5 -21q47 0 82 23t35 45
q0 46 -32 76t-90 30zM942 398v-36h-884v36h884zM324 -82v340h-2l-90 -40l-12 34l108 47h45v-381h-49zM676 -82v340h-2l-90 -40l-13 34l109 47h45v-381h-49z" />
    <glyph glyph-name="Japan1.9866" 
d="M599 461q-72 0 -118 49.5t-46 138.5q0 93 48 143t120 50q76 0 119.5 -47.5t43.5 -137.5q0 -94 -43 -145t-124 -51zM599 500q63 0 90.5 43.5t27.5 110.5q0 70 -28.5 109.5t-86.5 39.5q-52 0 -84.5 -40.5t-32.5 -108.5q0 -74 31 -114t83 -40zM319 461v340h-2l-91 -40
l-12 34l108 47h45v-381h-48zM942 398v-36h-884v36h884zM324 -82v340h-2l-90 -40l-12 34l108 47h45v-381h-49zM676 -82v340h-2l-90 -40l-13 34l109 47h45v-381h-49z" />
    <glyph glyph-name="Japan1.9867" 
d="M489 461v340h-2l-91 -40l-12 34l108 47h46v-381h-49zM942 398v-36h-884v36h884zM319 -82v340h-2l-90 -40l-13 34l109 47h45v-381h-49zM768 -76h-312v23l51 37q135 103 162 131q35 36 35 69q0 32 -22 53t-71 21q-65 0 -108 -43l-24 33q55 51 141 51q66 0 100 -32.5
t34 -73.5q0 -21 -5 -36.5t-23.5 -41t-62 -62t-114.5 -86.5v-2h219v-41z" />
    <glyph glyph-name="Japan1.9868" 
d="M643 835v-41h-198l-19 -95q22 4 47 4q27 0 54 -5t56.5 -17t47.5 -36.5t18 -59.5q0 -58 -47 -91t-128 -33q-84 0 -125 26l16 36q44 -22 111 -22q53 0 87.5 22.5t34.5 59.5q0 81 -144 81q-37 0 -79 -8l33 179h235zM942 398v-36h-884v36h884zM319 -82v340h-2l-90 -40l-13 34
l109 47h45v-381h-49zM768 -76h-312v23l51 37q135 103 162 131q35 36 35 69q0 32 -22 53t-71 21q-65 0 -108 -43l-24 33q55 51 141 51q66 0 100 -32.5t34 -73.5q0 -21 -5 -36.5t-23.5 -41t-62 -62t-114.5 -86.5v-2h219v-41z" />
    <glyph glyph-name="Japan1.9869" 
d="M343 835h314v-31l-202 -343h-58l200 332v1h-254v41zM942 398v-36h-884v36h884zM319 -82v340h-2l-90 -40l-13 34l109 47h45v-381h-49zM768 -76h-312v23l51 37q135 103 162 131q35 36 35 69q0 32 -22 53t-71 21q-65 0 -108 -43l-24 33q55 51 141 51q66 0 100 -32.5
t34 -73.5q0 -21 -5 -36.5t-23.5 -41t-62 -62t-114.5 -86.5v-2h219v-41z" />
    <glyph glyph-name="Japan1.9870" 
d="M316 461v340h-2l-90 -40l-13 34l108 47h46v-381h-49zM668 461v340h-2l-90 -40l-13 34l108 47h46v-381h-49zM942 398v-36h-884v36h884zM319 -82v340h-2l-90 -40l-13 34l109 47h45v-381h-49zM768 -76h-312v23l51 37q135 103 162 131q35 36 35 69q0 32 -22 53t-71 21
q-65 0 -108 -43l-24 33q55 51 141 51q66 0 100 -32.5t34 -73.5q0 -21 -5 -36.5t-23.5 -41t-62 -62t-114.5 -86.5v-2h219v-41z" />
    <glyph glyph-name="Japan1.9871" 
d="M457 -82q-60 0 -90.5 49.5t-30.5 138.5q0 96 33 144.5t91 48.5q120 0 120 -185q0 -196 -123 -196zM456 -43q39 0 57.5 34.5t18.5 119.5q0 74 -17 111.5t-57 37.5q-74 0 -74 -149q0 -154 72 -154zM753 -82q-60 0 -90.5 49.5t-30.5 138.5q0 96 33 144.5t91 48.5
q120 0 120 -185q0 -196 -123 -196zM753 -43q39 0 57 36.5t18 117.5q0 75 -16.5 112t-57.5 37q-36 0 -55 -39t-19 -110q0 -154 73 -154zM489 461v340h-2l-91 -40l-12 34l108 47h46v-381h-49zM942 398v-36h-884v36h884zM210 -82v340h-2l-85 -38l-13 34l104 45h44v-381h-48z
" />
    <glyph glyph-name="Japan1.9872" 
d="M500 -13q-94 0 -153 99t-59 283q0 191 63 290.5t152 99.5q99 0 154 -95.5t55 -284.5q0 -191 -59 -291.5t-153 -100.5zM499 35q78 0 118 91.5t40 244.5q0 340 -156 340q-63 0 -110.5 -84t-47.5 -264q0 -148 40.5 -238t115.5 -90z" />
    <glyph glyph-name="Japan1.9873" 
d="M516 -11v710h-2l-138 -83l-20 41l164 101h51v-769h-55z" />
    <glyph glyph-name="Japan1.9874" 
d="M710 0h-420v35l65 75q162 191 221.5 283t59.5 172q0 64 -33 105.5t-99 41.5q-44 0 -83.5 -26.5t-65.5 -65.5l-33 34q75 105 189 105q90 0 135 -54t45 -128q0 -54 -15 -102.5t-56 -110t-81 -111t-122 -144.5l-48 -57v-3h341v-49z" />
    <glyph glyph-name="Japan1.9875" 
d="M342 659l-23 40q77 60 173 60q95 0 141.5 -53.5t46.5 -126.5q0 -135 -144 -184v-2q79 -11 127 -60.5t48 -124.5q0 -43 -13.5 -81.5t-40.5 -70.5t-74 -50.5t-109 -18.5q-109 0 -185 65l24 44q73 -61 167 -61q49 0 85 16.5t54.5 43.5t27 54.5t8.5 56.5q0 82 -61 121.5
t-165 39.5h-40v45h41q76 0 136 41.5t60 117.5q0 60 -33.5 101t-104.5 41q-76 0 -146 -54z" />
    <glyph glyph-name="Japan1.9876" 
d="M641 -11h-52v201h-320v37l323 531h49v-521h90v-47h-90v-201zM329 237h260v325q3 92 5 116h-3l-57 -106l-205 -332v-3z" />
    <glyph glyph-name="Japan1.9877" 
d="M696 747v-49h-261l-36 -236q21 4 63 4q101 0 169.5 -61t68.5 -167q0 -110 -69.5 -180.5t-170.5 -70.5q-99 0 -160 47l20 43q63 -43 143 -43q78 0 130.5 55t51.5 139q-1 89 -53 141.5t-151 52.5q-50 0 -96 -8l46 333h305z" />
    <glyph glyph-name="Japan1.9878" 
d="M649 759l4 -51q-44 -2 -75 -10q-95 -25 -157 -114t-73 -200h2q60 101 165 101q90 0 143.5 -67t53.5 -171q0 -105 -55 -182.5t-153 -77.5q-92 0 -154 82t-62 229q0 112 32.5 202.5t85 145.5t115.5 84t128 29zM509 32q67 0 107.5 58.5t40.5 154.5q0 93 -42.5 144.5
t-112.5 51.5q-62 0 -110.5 -51t-48.5 -102q0 -114 43 -185t123 -71z" />
    <glyph glyph-name="Japan1.9879" 
d="M293 747h413v-43l-286 -715h-57l286 707v2h-356v49z" />
    <glyph glyph-name="Japan1.9880" 
d="M428 397v4q-62 27 -93.5 72t-31.5 96q0 84 57.5 137t147.5 53q86 0 137.5 -51.5t51.5 -126.5q0 -123 -127 -182v-4q154 -61 154 -196q0 -97 -64.5 -154.5t-159.5 -57.5q-98 0 -161 55t-63 145q0 142 152 210zM506 716q-71 0 -111 -40.5t-40 -97.5q0 -64 40 -101t118 -58
q133 48 133 160q0 56 -34.5 96.5t-105.5 40.5zM499 31q76 0 123 45t47 112q0 74 -46 117t-135 70q-75 -23 -116 -71t-41 -110q0 -69 44.5 -116t123.5 -47z" />
    <glyph glyph-name="Japan1.9881" 
d="M351 -13l-4 52q89 0 158 49.5t104 121t43 152.5h-2q-60 -99 -165 -99q-91 0 -144 66.5t-53 170.5t55 181.5t153 77.5q92 0 154 -81.5t62 -228.5q0 -176 -78.5 -297.5t-213.5 -155.5q-25 -6 -69 -9zM491 715q-67 0 -107.5 -58.5t-40.5 -154.5q0 -94 42.5 -145t112.5 -51
q62 0 110.5 51t48.5 102q0 114 -43 185t-123 71z" />
    <glyph glyph-name="Japan1.9882" 
d="M678 759l34 -17l-47 -92q47 -96 47 -271q0 -191 -59 -291.5t-153 -100.5q-82 0 -139 76l-40 -77l-33 18l50 97q-50 102 -50 268q0 191 63 290.5t152 99.5q87 0 139 -70zM372 167l240 465q-39 79 -111 79q-65 0 -111.5 -85.5t-46.5 -259.5q0 -120 29 -199zM629 583
l-239 -465q38 -83 108 -83q56 0 92.5 47.5t51.5 120.5t15 168q0 134 -28 212z" />
    <glyph glyph-name="Japan1.9883" 
d="M106 769h56v-779h-56v779zM348 769h57v-779h-57v779zM592 769h56v-779h-56v779zM836 769h56v-779h-56v779z" />
    <glyph glyph-name="Japan1.9884" 
d="M323 45q-144 0 -144 335q0 173 40 253.5t103 80.5q137 0 137 -336q0 -333 -136 -333zM321 91q89 0 89 288q0 130 -21.5 209t-66.5 79q-46 0 -70 -81t-24 -207q0 -127 23.5 -207.5t69.5 -80.5zM685 45q-144 0 -144 335q0 173 40 253.5t103 80.5q137 0 137 -336
q0 -333 -136 -333zM683 91q89 0 89 288q0 130 -21.5 209t-66.5 79q-46 0 -70 -81t-24 -207q0 -127 23.5 -207.5t69.5 -80.5zM179 842v-5q-103 -135 -103 -457t103 -457v-5h-38q-103 139 -103 462t103 462h38zM821 -82v5q103 135 103 457t-103 457v5h38q103 -139 103 -462
t-103 -462h-38z" />
    <glyph glyph-name="Japan1.9885" 
d="M323 45q-144 0 -144 335q0 173 40 253.5t103 80.5q137 0 137 -336q0 -333 -136 -333zM321 91q89 0 89 288q0 130 -21.5 209t-66.5 79q-46 0 -70 -81t-24 -207q0 -127 23.5 -207.5t69.5 -80.5zM179 842v-5q-103 -135 -103 -457t103 -457v-5h-38q-103 139 -103 462t103 462
h38zM821 -82v5q103 135 103 457t-103 457v5h38q103 -139 103 -462t-103 -462h-38zM689 46v615h-2l-82 -49l-10 38l102 64h40v-668h-48z" />
    <glyph glyph-name="Japan1.9886" 
d="M323 45q-144 0 -144 335q0 173 40 253.5t103 80.5q137 0 137 -336q0 -333 -136 -333zM321 91q89 0 89 288q0 130 -21.5 209t-66.5 79q-46 0 -70 -81t-24 -207q0 -127 23.5 -207.5t69.5 -80.5zM179 842v-5q-103 -135 -103 -457t103 -457v-5h-38q-103 139 -103 462t103 462
h38zM821 -82v5q103 135 103 457t-103 457v5h38q103 -139 103 -462t-103 -462h-38zM804 54h-266v30l45 73l31 51q30 50 37.5 63.5t31 60t32 72.5t17.5 65t9 73q0 61 -23 94t-65 33q-45 0 -79 -46l-21 34q39 57 109 57q61 0 96 -46t35 -126q0 -83 -38 -168.5t-114 -206.5
l-41 -66v-2h204v-45z" />
    <glyph glyph-name="Japan1.9887" 
d="M323 45q-144 0 -144 335q0 173 40 253.5t103 80.5q137 0 137 -336q0 -333 -136 -333zM321 91q89 0 89 288q0 130 -21.5 209t-66.5 79q-46 0 -70 -81t-24 -207q0 -127 23.5 -207.5t69.5 -80.5zM179 842v-5q-103 -135 -103 -457t103 -457v-5h-38q-103 139 -103 462t103 462
h38zM821 -82v5q103 135 103 457t-103 457v5h38q103 -139 103 -462t-103 -462h-38zM533 78l16 43q42 -30 90 -30q58 0 87 40t29 106q0 147 -153 147v43h19q41 0 78.5 34.5t37.5 95.5q0 53 -22.5 82.5t-64.5 29.5q-37 0 -78 -35l-17 40q43 41 105 41q61 0 95 -42.5t34 -106.5
q0 -51 -24 -92t-71 -62v-2q48 -13 80.5 -56.5t32.5 -116.5q0 -83 -42.5 -137.5t-126.5 -54.5q-63 0 -105 33z" />
    <glyph glyph-name="Japan1.9888" 
d="M758 46h-49v172h-182v37l176 459h55v-450h60v-46h-60v-172zM575 264h134v244q0 59 5 132h-3q-29 -86 -43 -120zM323 45q-144 0 -144 335q0 173 40 253.5t103 80.5q137 0 137 -336q0 -333 -136 -333zM321 91q89 0 89 288q0 130 -21.5 209t-66.5 79q-46 0 -70 -81t-24 -207
q0 -127 23.5 -207.5t69.5 -80.5zM179 842v-5q-103 -135 -103 -457t103 -457v-5h-38q-103 139 -103 462t103 462h38zM821 -82v5q103 135 103 457t-103 457v5h38q103 -139 103 -462t-103 -462h-38z" />
    <glyph glyph-name="Japan1.9889" 
d="M323 45q-144 0 -144 335q0 173 40 253.5t103 80.5q137 0 137 -336q0 -333 -136 -333zM321 91q89 0 89 288q0 130 -21.5 209t-66.5 79q-46 0 -70 -81t-24 -207q0 -127 23.5 -207.5t69.5 -80.5zM179 842v-5q-103 -135 -103 -457t103 -457v-5h-38q-103 139 -103 462t103 462
h38zM821 -82v5q103 135 103 457t-103 457v5h38q103 -139 103 -462t-103 -462h-38zM564 417l24 288h191v-46h-150l-17 -199q6 2 22 2q63 -2 102 -45q48 -51 48 -151t-44 -160.5t-114 -60.5q-58 0 -91 30l16 42q33 -26 73 -26q45 0 76.5 44.5t31.5 123.5t-33.5 120t-88.5 41
q-16 0 -46 -3z" />
    </font>
</defs>
</svg>
